STARTFONT 2.1
FONT -FontForge-Bitstream Vera Sans-Book-R-Normal-Sans--20-190-75-75-P-120-ISO10646-1
SIZE 19 75 75
FONTBOUNDINGBOX 29 24 -4 -5
COMMENT "Generated by fontforge, http://fontforge.sourceforge.net"
COMMENT "Copyright (c) 2003 by Bitstream, Inc. All Rights Reserved."
STARTPROPERTIES 40
FOUNDRY "FontForge"
FAMILY_NAME "Bitstream Vera Sans"
WEIGHT_NAME "Book"
SLANT "R"
SETWIDTH_NAME "Normal"
ADD_STYLE_NAME "Sans"
PIXEL_SIZE 20
POINT_SIZE 190
RESOLUTION_X 75
RESOLUTION_Y 75
SPACING "P"
AVERAGE_WIDTH 120
CHARSET_REGISTRY "ISO10646"
CHARSET_ENCODING "1"
FONTNAME_REGISTRY ""
CHARSET_COLLECTIONS "ISO8859-9 ISO10646-1"
FONT_NAME "BitstreamVeraSans-Roman"
FACE_NAME "Bitstream Vera Sans"
COPYRIGHT "Copyright (c) 2003 by Bitstream, Inc. All Rights Reserved."
FONT_VERSION "Release 1.10"
FONT_ASCENT 15
FONT_DESCENT 5
UNDERLINE_POSITION -3
UNDERLINE_THICKNESS 2
X_HEIGHT 10
CAP_HEIGHT 14
RAW_ASCENT 759
RAW_DESCENT 240
NORM_SPACE 6
RELATIVE_WEIGHT 40
RELATIVE_SETWIDTH 50
SUPERSCRIPT_X 0
SUPERSCRIPT_Y 5
SUPERSCRIPT_SIZE 11
SUBSCRIPT_X 0
SUBSCRIPT_Y -4
SUBSCRIPT_SIZE 11
FIGURE_WIDTH 13
AVG_LOWERCASE_WIDTH 115
AVG_UPPERCASE_WIDTH 135
ENDPROPERTIES
CHARS 268
STARTCHAR space
ENCODING 32
SWIDTH 317 0
DWIDTH 6 0
BBX 1 1 0 0
BITMAP
00
ENDCHAR
STARTCHAR exclam
ENCODING 33
SWIDTH 400 0
DWIDTH 8 0
BBX 2 15 3 0
BITMAP
C0
C0
C0
C0
C0
C0
C0
C0
C0
C0
C0
00
00
C0
C0
ENDCHAR
STARTCHAR quotedbl
ENCODING 34
SWIDTH 459 0
DWIDTH 10 0
BBX 6 5 2 10
BITMAP
CC
CC
CC
CC
CC
ENDCHAR
STARTCHAR numbersign
ENCODING 35
SWIDTH 837 0
DWIDTH 17 0
BBX 14 15 2 0
BITMAP
0230
0630
0620
0460
7FFC
7FFC
0C40
0CC0
08C0
FFF8
FFF8
1880
1180
3180
3100
ENDCHAR
STARTCHAR dollar
ENCODING 36
SWIDTH 636 0
DWIDTH 13 0
BBX 9 18 2 -3
BITMAP
0800
0800
3E00
7F00
E900
C800
C800
7C00
3F00
0B80
0980
0980
8B80
FF00
7E00
0800
0800
0800
ENDCHAR
STARTCHAR percent
ENCODING 37
SWIDTH 950 0
DWIDTH 19 0
BBX 17 15 0 0
BITMAP
380800
6C0800
C61000
C63000
C62000
C64000
6C4000
388E00
011B00
013180
023180
063180
043180
081B00
080E00
ENDCHAR
STARTCHAR ampersand
ENCODING 38
SWIDTH 779 0
DWIDTH 15 0
BBX 14 15 1 0
BITMAP
0F00
1F80
3880
3000
3000
3800
3C00
7E18
E738
C3B0
C1F0
C0E0
71F0
7FB8
1E1C
ENDCHAR
STARTCHAR quotesingle
ENCODING 39
SWIDTH 274 0
DWIDTH 6 0
BBX 2 5 2 10
BITMAP
C0
C0
C0
C0
C0
ENDCHAR
STARTCHAR parenleft
ENCODING 40
SWIDTH 390 0
DWIDTH 8 0
BBX 4 18 2 -3
BITMAP
30
20
60
60
40
C0
C0
C0
C0
C0
C0
C0
C0
60
60
60
20
30
ENDCHAR
STARTCHAR parenright
ENCODING 41
SWIDTH 390 0
DWIDTH 8 0
BBX 4 18 2 -3
BITMAP
C0
40
60
60
20
30
30
30
30
30
30
30
30
60
60
60
40
C0
ENDCHAR
STARTCHAR asterisk
ENCODING 42
SWIDTH 500 0
DWIDTH 10 0
BBX 9 10 0 5
BITMAP
0800
0800
8880
6B00
1C00
1C00
6B00
8880
0800
0800
ENDCHAR
STARTCHAR plus
ENCODING 43
SWIDTH 837 0
DWIDTH 17 0
BBX 12 12 2 0
BITMAP
0600
0600
0600
0600
0600
FFF0
FFF0
0600
0600
0600
0600
0600
ENDCHAR
STARTCHAR comma
ENCODING 44
SWIDTH 317 0
DWIDTH 6 0
BBX 3 5 1 -3
BITMAP
60
60
60
C0
80
ENDCHAR
STARTCHAR hyphen
ENCODING 45
SWIDTH 360 0
DWIDTH 7 0
BBX 5 2 1 5
BITMAP
F8
F8
ENDCHAR
STARTCHAR period
ENCODING 46
SWIDTH 317 0
DWIDTH 6 0
BBX 2 2 2 0
BITMAP
C0
C0
ENDCHAR
STARTCHAR slash
ENCODING 47
SWIDTH 336 0
DWIDTH 7 0
BBX 7 16 0 -1
BITMAP
06
0E
0C
0C
0C
18
18
18
30
30
30
60
60
60
E0
C0
ENDCHAR
STARTCHAR zero
ENCODING 48
SWIDTH 636 0
DWIDTH 13 0
BBX 10 15 1 0
BITMAP
1E00
3F00
6180
6180
C0C0
C0C0
C0C0
C0C0
C0C0
C0C0
C0C0
6180
6180
3F00
1E00
ENDCHAR
STARTCHAR one
ENCODING 49
SWIDTH 636 0
DWIDTH 13 0
BBX 9 15 2 0
BITMAP
3C00
FC00
CC00
0C00
0C00
0C00
0C00
0C00
0C00
0C00
0C00
0C00
0C00
7F80
7F80
ENDCHAR
STARTCHAR two
ENCODING 50
SWIDTH 636 0
DWIDTH 13 0
BBX 9 15 1 0
BITMAP
7E00
FF00
8380
0180
0180
0180
0380
0700
0E00
0C00
3800
7000
E000
FF80
FF80
ENDCHAR
STARTCHAR three
ENCODING 51
SWIDTH 636 0
DWIDTH 13 0
BBX 10 15 1 0
BITMAP
7E00
FF00
8380
0180
0180
0380
1E00
1F00
0180
00C0
00C0
00C0
81C0
FF80
7E00
ENDCHAR
STARTCHAR four
ENCODING 52
SWIDTH 636 0
DWIDTH 13 0
BBX 11 15 1 0
BITMAP
0380
0780
0580
0D80
0980
1980
3180
2180
6180
C180
FFE0
FFE0
0180
0180
0180
ENDCHAR
STARTCHAR five
ENCODING 53
SWIDTH 636 0
DWIDTH 13 0
BBX 9 15 1 0
BITMAP
7F00
7F00
6000
6000
6000
7E00
7F00
4380
0180
0180
0180
0180
8300
FF00
7C00
ENDCHAR
STARTCHAR six
ENCODING 54
SWIDTH 636 0
DWIDTH 13 0
BBX 10 15 1 0
BITMAP
0F00
3F80
7080
6000
E000
C000
CF00
FF80
E1C0
C0C0
C0C0
C0C0
61C0
7F80
1F00
ENDCHAR
STARTCHAR seven
ENCODING 55
SWIDTH 636 0
DWIDTH 13 0
BBX 10 15 1 0
BITMAP
FFC0
FFC0
0180
0180
0180
0300
0300
0300
0600
0600
0600
0C00
0C00
0C00
1800
ENDCHAR
STARTCHAR eight
ENCODING 56
SWIDTH 636 0
DWIDTH 13 0
BBX 10 15 1 0
BITMAP
3F00
7F80
E1C0
C0C0
C0C0
6180
3F00
7F80
6180
C0C0
C0C0
C0C0
E1C0
7F80
3F00
ENDCHAR
STARTCHAR nine
ENCODING 57
SWIDTH 636 0
DWIDTH 13 0
BBX 10 15 1 0
BITMAP
3E00
7F80
E180
C0C0
C0C0
C0C0
E1C0
7FC0
3CC0
00C0
01C0
0180
4380
7F00
3C00
ENDCHAR
STARTCHAR colon
ENCODING 58
SWIDTH 336 0
DWIDTH 7 0
BBX 2 10 2 0
BITMAP
C0
C0
00
00
00
00
00
00
C0
C0
ENDCHAR
STARTCHAR semicolon
ENCODING 59
SWIDTH 336 0
DWIDTH 7 0
BBX 3 13 1 -3
BITMAP
60
60
00
00
00
00
00
00
60
60
60
C0
80
ENDCHAR
STARTCHAR less
ENCODING 60
SWIDTH 837 0
DWIDTH 17 0
BBX 13 11 2 1
BITMAP
0008
0078
03F0
1F80
FC00
F000
FC00
1F80
03F0
0078
0008
ENDCHAR
STARTCHAR equal
ENCODING 61
SWIDTH 837 0
DWIDTH 17 0
BBX 13 6 2 3
BITMAP
FFF8
FFF8
0000
0000
FFF8
FFF8
ENDCHAR
STARTCHAR greater
ENCODING 62
SWIDTH 837 0
DWIDTH 17 0
BBX 13 11 2 1
BITMAP
8000
F000
7E00
0FC0
01F8
0078
01F8
0FC0
7E00
F000
8000
ENDCHAR
STARTCHAR question
ENCODING 63
SWIDTH 530 0
DWIDTH 11 0
BBX 8 15 1 0
BITMAP
7C
FE
87
03
03
07
0E
1C
38
30
30
30
00
30
30
ENDCHAR
STARTCHAR at
ENCODING 64
SWIDTH 1000 0
DWIDTH 20 0
BBX 18 18 1 -3
BITMAP
03F000
0FFE00
1E0F00
380380
700180
61D8C0
C3F8C0
C738C0
C618C0
C619C0
C73B80
C3FF00
61DC00
700000
380400
1C1C00
0FF800
03E000
ENDCHAR
STARTCHAR A
ENCODING 65
SWIDTH 684 0
DWIDTH 14 0
BBX 13 15 0 0
BITMAP
0700
0700
0700
0D80
0D80
1DC0
18C0
18C0
3060
3060
3FE0
7FF0
6030
6030
C018
ENDCHAR
STARTCHAR B
ENCODING 66
SWIDTH 686 0
DWIDTH 14 0
BBX 10 15 2 0
BITMAP
FE00
FF00
C380
C180
C180
C380
FF00
FF00
C180
C0C0
C0C0
C0C0
C1C0
FF80
FF00
ENDCHAR
STARTCHAR C
ENCODING 67
SWIDTH 698 0
DWIDTH 14 0
BBX 12 15 1 0
BITMAP
0FE0
3FF0
3810
6000
E000
C000
C000
C000
C000
C000
E000
6000
3810
3FF0
0FE0
ENDCHAR
STARTCHAR D
ENCODING 68
SWIDTH 770 0
DWIDTH 15 0
BBX 12 15 2 0
BITMAP
FF00
FFC0
C1E0
C060
C070
C030
C030
C030
C030
C030
C070
C060
C1E0
FFC0
FF00
ENDCHAR
STARTCHAR E
ENCODING 69
SWIDTH 631 0
DWIDTH 13 0
BBX 9 15 2 0
BITMAP
FF80
FF80
C000
C000
C000
C000
FF80
FF80
C000
C000
C000
C000
C000
FF80
FF80
ENDCHAR
STARTCHAR F
ENCODING 70
SWIDTH 575 0
DWIDTH 12 0
BBX 8 15 2 0
BITMAP
FF
FF
C0
C0
C0
C0
FE
FE
C0
C0
C0
C0
C0
C0
C0
ENDCHAR
STARTCHAR G
ENCODING 71
SWIDTH 774 0
DWIDTH 16 0
BBX 13 15 1 0
BITMAP
0FE0
3FF0
7810
6000
E000
C000
C000
C0F8
C0F8
C018
E018
6018
3818
1FF0
0FC0
ENDCHAR
STARTCHAR H
ENCODING 72
SWIDTH 751 0
DWIDTH 15 0
BBX 11 15 2 0
BITMAP
C060
C060
C060
C060
C060
C060
FFE0
FFE0
C060
C060
C060
C060
C060
C060
C060
ENDCHAR
STARTCHAR I
ENCODING 73
SWIDTH 294 0
DWIDTH 6 0
BBX 2 15 2 0
BITMAP
C0
C0
C0
C0
C0
C0
C0
C0
C0
C0
C0
C0
C0
C0
C0
ENDCHAR
STARTCHAR J
ENCODING 74
SWIDTH 294 0
DWIDTH 6 0
BBX 5 19 -1 -4
BITMAP
18
18
18
18
18
18
18
18
18
18
18
18
18
18
18
18
38
F0
E0
ENDCHAR
STARTCHAR K
ENCODING 75
SWIDTH 655 0
DWIDTH 13 0
BBX 11 15 2 0
BITMAP
C1C0
C380
C700
CE00
DC00
F800
F000
F000
F800
DC00
CE00
C700
C380
C1C0
C0E0
ENDCHAR
STARTCHAR L
ENCODING 76
SWIDTH 557 0
DWIDTH 11 0
BBX 9 15 2 0
BITMAP
C000
C000
C000
C000
C000
C000
C000
C000
C000
C000
C000
C000
C000
FF80
FF80
ENDCHAR
STARTCHAR M
ENCODING 77
SWIDTH 862 0
DWIDTH 17 0
BBX 13 15 2 0
BITMAP
F078
F078
F078
D8D8
D8D8
D8D8
CD98
CD98
CD98
C718
C718
C718
C018
C018
C018
ENDCHAR
STARTCHAR N
ENCODING 78
SWIDTH 748 0
DWIDTH 15 0
BBX 11 15 2 0
BITMAP
E060
F060
F060
F860
D860
DC60
CC60
CE60
C660
C760
C360
C3E0
C1E0
C0E0
C0E0
ENDCHAR
STARTCHAR O
ENCODING 79
SWIDTH 787 0
DWIDTH 16 0
BBX 14 15 1 0
BITMAP
0FC0
3FF0
3870
6018
E01C
C00C
C00C
C00C
C00C
C00C
E01C
6018
3870
3FF0
0FC0
ENDCHAR
STARTCHAR P
ENCODING 80
SWIDTH 603 0
DWIDTH 12 0
BBX 9 15 2 0
BITMAP
FE00
FF00
C380
C180
C180
C180
C380
FF00
FE00
C000
C000
C000
C000
C000
C000
ENDCHAR
STARTCHAR Q
ENCODING 81
SWIDTH 787 0
DWIDTH 16 0
BBX 14 18 1 -3
BITMAP
0FC0
3FF0
3878
6018
E01C
C00C
C00C
C00C
C00C
C00C
E01C
6018
3870
3FE0
0FC0
00E0
0070
0030
ENDCHAR
STARTCHAR R
ENCODING 82
SWIDTH 694 0
DWIDTH 14 0
BBX 11 15 2 0
BITMAP
FE00
FF00
C380
C180
C180
C380
FF00
FE00
C700
C380
C180
C180
C0C0
C0C0
C060
ENDCHAR
STARTCHAR S
ENCODING 83
SWIDTH 634 0
DWIDTH 13 0
BBX 10 15 1 0
BITMAP
3F00
7F80
E080
C000
C000
E000
7C00
3F00
0380
00C0
00C0
00C0
81C0
FF80
7F00
ENDCHAR
STARTCHAR T
ENCODING 84
SWIDTH 610 0
DWIDTH 12 0
BBX 12 15 0 0
BITMAP
FFF0
FFF0
0600
0600
0600
0600
0600
0600
0600
0600
0600
0600
0600
0600
0600
ENDCHAR
STARTCHAR U
ENCODING 85
SWIDTH 731 0
DWIDTH 15 0
BBX 11 15 2 0
BITMAP
C060
C060
C060
C060
C060
C060
C060
C060
C060
C060
C060
E0E0
60C0
7FC0
1F00
ENDCHAR
STARTCHAR V
ENCODING 86
SWIDTH 684 0
DWIDTH 14 0
BBX 13 15 0 0
BITMAP
C018
6030
6030
6030
3060
3060
3060
18C0
18C0
1DC0
0D80
0D80
0700
0700
0700
ENDCHAR
STARTCHAR W
ENCODING 87
SWIDTH 988 0
DWIDTH 20 0
BBX 18 15 1 0
BITMAP
C1E0C0
C1E0C0
61E180
61E180
633180
633180
333300
333300
361B00
361B00
3E1E00
1E1E00
1E1E00
1C0E00
1C0E00
ENDCHAR
STARTCHAR X
ENCODING 88
SWIDTH 685 0
DWIDTH 14 0
BBX 12 15 1 0
BITMAP
7070
3060
18C0
1DC0
0D80
0F80
0700
0700
0F00
0D80
1980
38C0
30E0
6060
E070
ENDCHAR
STARTCHAR Y
ENCODING 89
SWIDTH 610 0
DWIDTH 12 0
BBX 12 15 0 0
BITMAP
E070
6060
30C0
39C0
1980
1F80
0F00
0600
0600
0600
0600
0600
0600
0600
0600
ENDCHAR
STARTCHAR Z
ENCODING 90
SWIDTH 685 0
DWIDTH 14 0
BBX 12 15 1 0
BITMAP
FFF0
FFF0
0060
00C0
01C0
0380
0700
0600
0C00
1C00
3800
3000
6000
FFF0
FFF0
ENDCHAR
STARTCHAR bracketleft
ENCODING 91
SWIDTH 390 0
DWIDTH 8 0
BBX 4 18 2 -3
BITMAP
F0
F0
C0
C0
C0
C0
C0
C0
C0
C0
C0
C0
C0
C0
C0
C0
F0
F0
ENDCHAR
STARTCHAR backslash
ENCODING 92
SWIDTH 336 0
DWIDTH 7 0
BBX 7 16 0 -1
BITMAP
C0
E0
60
60
60
30
30
30
18
18
18
0C
0C
0C
0E
06
ENDCHAR
STARTCHAR bracketright
ENCODING 93
SWIDTH 390 0
DWIDTH 8 0
BBX 4 18 2 -3
BITMAP
F0
F0
30
30
30
30
30
30
30
30
30
30
30
30
30
30
F0
F0
ENDCHAR
STARTCHAR asciicircum
ENCODING 94
SWIDTH 837 0
DWIDTH 17 0
BBX 11 5 3 10
BITMAP
0E00
1B00
3180
60C0
C060
ENDCHAR
STARTCHAR underscore
ENCODING 95
SWIDTH 500 0
DWIDTH 10 0
BBX 10 2 0 -5
BITMAP
FFC0
FFC0
ENDCHAR
STARTCHAR grave
ENCODING 96
SWIDTH 500 0
DWIDTH 10 0
BBX 5 4 1 12
BITMAP
C0
60
30
18
ENDCHAR
STARTCHAR a
ENCODING 97
SWIDTH 612 0
DWIDTH 12 0
BBX 9 11 1 0
BITMAP
3E00
7F00
4380
0180
3F80
7F80
C180
C180
C380
FF80
7D80
ENDCHAR
STARTCHAR b
ENCODING 98
SWIDTH 634 0
DWIDTH 13 0
BBX 10 15 2 0
BITMAP
C000
C000
C000
C000
DF00
FF80
E180
C0C0
C0C0
C0C0
C0C0
C0C0
E180
FF80
DF00
ENDCHAR
STARTCHAR c
ENCODING 99
SWIDTH 549 0
DWIDTH 11 0
BBX 9 11 1 0
BITMAP
1F00
7F80
7080
E000
C000
C000
C000
E000
7080
7F80
1F00
ENDCHAR
STARTCHAR d
ENCODING 100
SWIDTH 634 0
DWIDTH 13 0
BBX 10 15 1 0
BITMAP
00C0
00C0
00C0
00C0
3EC0
7FC0
61C0
C0C0
C0C0
C0C0
C0C0
C0C0
61C0
7FC0
3EC0
ENDCHAR
STARTCHAR e
ENCODING 101
SWIDTH 615 0
DWIDTH 12 0
BBX 10 11 1 0
BITMAP
1F00
7F80
61C0
C0C0
FFC0
FFC0
C000
C000
7040
3FC0
1F80
ENDCHAR
STARTCHAR f
ENCODING 102
SWIDTH 352 0
DWIDTH 7 0
BBX 7 15 0 0
BITMAP
1E
3E
30
30
FE
FE
30
30
30
30
30
30
30
30
30
ENDCHAR
STARTCHAR g
ENCODING 103
SWIDTH 634 0
DWIDTH 13 0
BBX 10 15 1 -4
BITMAP
3EC0
7FC0
61C0
C0C0
C0C0
C0C0
C0C0
C0C0
61C0
7FC0
3EC0
00C0
4180
7F80
3E00
ENDCHAR
STARTCHAR h
ENCODING 104
SWIDTH 633 0
DWIDTH 13 0
BBX 9 15 2 0
BITMAP
C000
C000
C000
C000
DE00
FF00
E380
C180
C180
C180
C180
C180
C180
C180
C180
ENDCHAR
STARTCHAR i
ENCODING 105
SWIDTH 277 0
DWIDTH 6 0
BBX 2 15 2 0
BITMAP
C0
C0
00
00
C0
C0
C0
C0
C0
C0
C0
C0
C0
C0
C0
ENDCHAR
STARTCHAR j
ENCODING 106
SWIDTH 277 0
DWIDTH 6 0
BBX 4 19 0 -4
BITMAP
30
30
00
00
30
30
30
30
30
30
30
30
30
30
30
30
30
E0
E0
ENDCHAR
STARTCHAR k
ENCODING 107
SWIDTH 579 0
DWIDTH 12 0
BBX 9 15 2 0
BITMAP
C000
C000
C000
C000
C380
C700
CE00
DC00
F800
F000
F800
DC00
CE00
C700
C380
ENDCHAR
STARTCHAR l
ENCODING 108
SWIDTH 277 0
DWIDTH 6 0
BBX 2 15 2 0
BITMAP
C0
C0
C0
C0
C0
C0
C0
C0
C0
C0
C0
C0
C0
C0
C0
ENDCHAR
STARTCHAR m
ENCODING 109
SWIDTH 974 0
DWIDTH 20 0
BBX 16 11 2 0
BITMAP
DE3C
FF7E
E3C7
C183
C183
C183
C183
C183
C183
C183
C183
ENDCHAR
STARTCHAR n
ENCODING 110
SWIDTH 633 0
DWIDTH 13 0
BBX 9 11 2 0
BITMAP
DE00
FF00
E380
C180
C180
C180
C180
C180
C180
C180
C180
ENDCHAR
STARTCHAR o
ENCODING 111
SWIDTH 611 0
DWIDTH 12 0
BBX 10 11 1 0
BITMAP
1E00
7F80
6180
C0C0
C0C0
C0C0
C0C0
C0C0
6180
7F80
1E00
ENDCHAR
STARTCHAR p
ENCODING 112
SWIDTH 634 0
DWIDTH 13 0
BBX 10 15 2 -4
BITMAP
DF00
FF80
E180
C0C0
C0C0
C0C0
C0C0
C0C0
E180
FF80
DF00
C000
C000
C000
C000
ENDCHAR
STARTCHAR q
ENCODING 113
SWIDTH 634 0
DWIDTH 13 0
BBX 10 15 1 -4
BITMAP
3EC0
7FC0
61C0
C0C0
C0C0
C0C0
C0C0
C0C0
61C0
7FC0
3EC0
00C0
00C0
00C0
00C0
ENDCHAR
STARTCHAR r
ENCODING 114
SWIDTH 411 0
DWIDTH 8 0
BBX 6 11 2 0
BITMAP
DC
FC
E0
C0
C0
C0
C0
C0
C0
C0
C0
ENDCHAR
STARTCHAR s
ENCODING 115
SWIDTH 520 0
DWIDTH 10 0
BBX 8 11 1 0
BITMAP
3E
FF
C1
C0
FC
3E
07
03
83
FF
7C
ENDCHAR
STARTCHAR t
ENCODING 116
SWIDTH 392 0
DWIDTH 8 0
BBX 7 14 1 0
BITMAP
60
60
60
FE
FE
60
60
60
60
60
60
60
7E
3E
ENDCHAR
STARTCHAR u
ENCODING 117
SWIDTH 633 0
DWIDTH 13 0
BBX 9 11 2 0
BITMAP
C180
C180
C180
C180
C180
C180
C180
C180
E380
7F80
3D80
ENDCHAR
STARTCHAR v
ENCODING 118
SWIDTH 591 0
DWIDTH 11 0
BBX 11 11 0 0
BITMAP
C060
60C0
60C0
60C0
3180
3180
1B00
1B00
1B00
0E00
0E00
ENDCHAR
STARTCHAR w
ENCODING 119
SWIDTH 817 0
DWIDTH 17 0
BBX 15 11 1 0
BITMAP
C386
C386
628C
66CC
66CC
66CC
3458
3C78
3C78
1830
1830
ENDCHAR
STARTCHAR x
ENCODING 120
SWIDTH 591 0
DWIDTH 11 0
BBX 11 11 0 0
BITMAP
E0E0
71C0
3B80
1B00
0E00
0E00
1F00
1B00
3180
71C0
E0E0
ENDCHAR
STARTCHAR y
ENCODING 121
SWIDTH 591 0
DWIDTH 11 0
BBX 11 15 0 -4
BITMAP
C060
60C0
60C0
7180
3180
3B80
1B00
1B00
0E00
0E00
0C00
0C00
0C00
7800
7000
ENDCHAR
STARTCHAR z
ENCODING 122
SWIDTH 524 0
DWIDTH 11 0
BBX 9 11 1 0
BITMAP
FF80
FF80
0300
0600
0E00
1C00
3800
3000
7000
FF80
FF80
ENDCHAR
STARTCHAR braceleft
ENCODING 123
SWIDTH 636 0
DWIDTH 13 0
BBX 8 18 3 -3
BITMAP
0F
1F
18
18
18
18
18
18
F0
F0
38
18
18
18
18
18
1F
0F
ENDCHAR
STARTCHAR bar
ENCODING 124
SWIDTH 336 0
DWIDTH 7 0
BBX 2 20 3 -5
BITMAP
C0
C0
C0
C0
C0
C0
C0
C0
C0
C0
C0
C0
C0
C0
C0
C0
C0
C0
C0
C0
ENDCHAR
STARTCHAR braceright
ENCODING 125
SWIDTH 636 0
DWIDTH 13 0
BBX 8 18 2 -3
BITMAP
F0
F8
18
18
18
18
18
18
0F
0F
1C
18
18
18
18
18
F8
F0
ENDCHAR
STARTCHAR asciitilde
ENCODING 126
SWIDTH 837 0
DWIDTH 17 0
BBX 13 3 2 5
BITMAP
3E08
FFF8
C3E0
ENDCHAR
STARTCHAR nonbreakingspace
ENCODING 160
SWIDTH 636 0
DWIDTH 13 0
BBX 1 1 0 0
BITMAP
00
ENDCHAR
STARTCHAR exclamdown
ENCODING 161
SWIDTH 400 0
DWIDTH 8 0
BBX 2 15 3 0
BITMAP
C0
C0
00
00
C0
C0
C0
C0
C0
C0
C0
C0
C0
C0
C0
ENDCHAR
STARTCHAR cent
ENCODING 162
SWIDTH 636 0
DWIDTH 13 0
BBX 9 17 2 -3
BITMAP
0400
0400
0400
1F00
7F80
7480
C400
C400
C400
C400
C400
7480
7F80
1F00
0400
0400
0400
ENDCHAR
STARTCHAR sterling
ENCODING 163
SWIDTH 636 0
DWIDTH 13 0
BBX 9 15 2 0
BITMAP
0F00
1F80
3880
3000
3000
3000
3000
FF00
FF00
3000
3000
3000
3000
FF80
FF80
ENDCHAR
STARTCHAR currency
ENCODING 164
SWIDTH 636 0
DWIDTH 13 0
BBX 10 10 1 1
BITMAP
80C0
6D80
7F80
3300
6180
6180
3300
7F80
6D80
8040
ENDCHAR
STARTCHAR yen
ENCODING 165
SWIDTH 636 0
DWIDTH 13 0
BBX 12 15 0 0
BITMAP
E070
6060
70E0
30C0
1980
1980
7FE0
0F00
0600
7FE0
0600
0600
0600
0600
0600
ENDCHAR
STARTCHAR brokenbar
ENCODING 166
SWIDTH 336 0
DWIDTH 7 0
BBX 2 17 3 -3
BITMAP
C0
C0
C0
C0
C0
C0
C0
00
00
00
C0
C0
C0
C0
C0
C0
C0
ENDCHAR
STARTCHAR section
ENCODING 167
SWIDTH 500 0
DWIDTH 10 0
BBX 8 17 1 -2
BITMAP
3E
7E
60
60
30
78
CE
C7
C3
63
36
1C
0C
06
06
7E
7C
ENDCHAR
STARTCHAR dieresis
ENCODING 168
SWIDTH 500 0
DWIDTH 10 0
BBX 6 2 2 13
BITMAP
CC
CC
ENDCHAR
STARTCHAR copyright
ENCODING 169
SWIDTH 1000 0
DWIDTH 20 0
BBX 14 15 3 0
BITMAP
0FC0
1860
2010
4788
4C48
9804
9804
9804
9804
9804
4C48
4788
2010
1860
0FC0
ENDCHAR
STARTCHAR ordfeminine
ENCODING 170
SWIDTH 471 0
DWIDTH 9 0
BBX 8 10 1 5
BITMAP
7E
03
01
7F
C1
81
C3
7D
00
FF
ENDCHAR
STARTCHAR guillemotleft
ENCODING 171
SWIDTH 611 0
DWIDTH 12 0
BBX 10 9 2 1
BITMAP
0840
18C0
3180
4200
8400
4200
3180
18C0
0840
ENDCHAR
STARTCHAR logicalnot
ENCODING 172
SWIDTH 837 0
DWIDTH 17 0
BBX 13 6 2 2
BITMAP
FFF8
FFF8
0018
0018
0018
0018
ENDCHAR
STARTCHAR sfthyphen
ENCODING 173
SWIDTH 360 0
DWIDTH 7 0
BBX 5 2 1 5
BITMAP
F8
F8
ENDCHAR
STARTCHAR registered
ENCODING 174
SWIDTH 1000 0
DWIDTH 20 0
BBX 15 15 3 0
BITMAP
07C0
1830
2008
4FC4
4C64
8C62
8C62
8FC2
8C82
8CC2
4C64
4C34
2008
1830
07C0
ENDCHAR
STARTCHAR macron
ENCODING 175
SWIDTH 500 0
DWIDTH 10 0
BBX 6 2 2 13
BITMAP
FC
FC
ENDCHAR
STARTCHAR degree
ENCODING 176
SWIDTH 500 0
DWIDTH 10 0
BBX 6 6 2 9
BITMAP
78
CC
84
84
CC
78
ENDCHAR
STARTCHAR plusminus
ENCODING 177
SWIDTH 837 0
DWIDTH 17 0
BBX 12 13 3 0
BITMAP
0600
0600
0600
0600
FFF0
FFF0
0600
0600
0600
0600
0000
FFF0
FFF0
ENDCHAR
STARTCHAR twosuperior
ENCODING 178
SWIDTH 400 0
DWIDTH 8 0
BBX 6 8 1 7
BITMAP
78
84
04
0C
18
30
40
FC
ENDCHAR
STARTCHAR threesuperior
ENCODING 179
SWIDTH 400 0
DWIDTH 8 0
BBX 6 8 1 7
BITMAP
F8
04
04
38
04
04
04
F8
ENDCHAR
STARTCHAR acute
ENCODING 180
SWIDTH 500 0
DWIDTH 10 0
BBX 5 4 3 12
BITMAP
18
30
60
C0
ENDCHAR
STARTCHAR mu
ENCODING 181
SWIDTH 636 0
DWIDTH 13 0
BBX 10 15 2 -4
BITMAP
C180
C180
C180
C180
C180
C180
C180
C180
E380
FFC0
DCC0
C000
C000
C000
C000
ENDCHAR
STARTCHAR paragraph
ENCODING 182
SWIDTH 636 0
DWIDTH 13 0
BBX 9 17 2 -2
BITMAP
3F80
7C80
FC80
FC80
FC80
FC80
7C80
3C80
0480
0480
0480
0480
0480
0480
0480
0480
0480
ENDCHAR
STARTCHAR periodcentered
ENCODING 183
SWIDTH 317 0
DWIDTH 6 0
BBX 2 2 2 6
BITMAP
C0
C0
ENDCHAR
STARTCHAR cedilla
ENCODING 184
SWIDTH 500 0
DWIDTH 10 0
BBX 4 4 3 -4
BITMAP
20
30
30
E0
ENDCHAR
STARTCHAR onesuperior
ENCODING 185
SWIDTH 400 0
DWIDTH 8 0
BBX 5 8 2 7
BITMAP
E0
20
20
20
20
20
20
F8
ENDCHAR
STARTCHAR ordmasculine
ENCODING 186
SWIDTH 471 0
DWIDTH 9 0
BBX 8 10 1 5
BITMAP
3C
42
81
81
81
81
42
3C
00
FF
ENDCHAR
STARTCHAR guillemotright
ENCODING 187
SWIDTH 611 0
DWIDTH 12 0
BBX 10 9 2 1
BITMAP
8400
C600
6300
1080
0840
1080
6300
C600
8400
ENDCHAR
STARTCHAR onequarter
ENCODING 188
SWIDTH 969 0
DWIDTH 19 0
BBX 16 15 2 0
BITMAP
E018
2010
2020
2020
2040
2080
2080
F902
0206
020E
041A
0812
083F
1002
3002
ENDCHAR
STARTCHAR onehalf
ENCODING 189
SWIDTH 969 0
DWIDTH 19 0
BBX 16 15 2 0
BITMAP
E018
2010
2020
2020
2040
2080
2080
F91E
0221
0201
0401
0802
080C
1018
303F
ENDCHAR
STARTCHAR threequarters
ENCODING 190
SWIDTH 969 0
DWIDTH 19 0
BBX 17 15 1 0
BITMAP
F80C00
040800
041000
381000
042000
044000
044000
F88100
010300
010700
020D00
040900
041F80
080100
180100
ENDCHAR
STARTCHAR questiondown
ENCODING 191
SWIDTH 530 0
DWIDTH 11 0
BBX 8 15 1 0
BITMAP
0C
0C
00
0C
0C
0C
1C
38
70
60
C0
C0
E1
7F
3E
ENDCHAR
STARTCHAR Agrave
ENCODING 192
SWIDTH 684 0
DWIDTH 14 0
BBX 13 19 0 0
BITMAP
0600
0300
0100
0000
0700
0700
0700
0D80
0D80
1DC0
18C0
18C0
3060
3060
3FE0
7FF0
6030
6030
C018
ENDCHAR
STARTCHAR Aacute
ENCODING 193
SWIDTH 684 0
DWIDTH 14 0
BBX 13 19 0 0
BITMAP
0180
0100
0300
0000
0700
0700
0700
0D80
0D80
1DC0
18C0
18C0
3060
3060
3FE0
7FF0
6030
6030
C018
ENDCHAR
STARTCHAR Acircumflex
ENCODING 194
SWIDTH 684 0
DWIDTH 14 0
BBX 13 19 0 0
BITMAP
0300
0580
0C80
0000
0700
0700
0700
0D80
0D80
1DC0
18C0
18C0
3060
3060
3FE0
7FF0
6030
6030
C018
ENDCHAR
STARTCHAR Atilde
ENCODING 195
SWIDTH 684 0
DWIDTH 14 0
BBX 13 18 0 0
BITMAP
0E40
0980
0000
0700
0700
0700
0D80
0D80
1DC0
18C0
18C0
3060
3060
3FE0
7FF0
6030
6030
C018
ENDCHAR
STARTCHAR Adieresis
ENCODING 196
SWIDTH 684 0
DWIDTH 14 0
BBX 13 19 0 0
BITMAP
0CC0
0CC0
0000
0000
0700
0700
0700
0D80
0D80
1DC0
18C0
18C0
3060
3060
3FE0
7FF0
6030
6030
C018
ENDCHAR
STARTCHAR Aring
ENCODING 197
SWIDTH 684 0
DWIDTH 14 0
BBX 13 19 0 0
BITMAP
0700
0880
0880
0880
0700
0700
0F80
0D80
0D80
18C0
18C0
18C0
3060
3060
3FE0
7FF0
6030
6030
C018
ENDCHAR
STARTCHAR AE
ENCODING 198
SWIDTH 974 0
DWIDTH 20 0
BBX 18 15 0 0
BITMAP
03FFC0
03FFC0
066000
066000
0E6000
0C6000
0C7FC0
187FC0
186000
306000
3FE000
7FE000
606000
607FC0
C07FC0
ENDCHAR
STARTCHAR Ccedilla
ENCODING 199
SWIDTH 698 0
DWIDTH 14 0
BBX 12 19 1 -4
BITMAP
0FE0
3FF0
3810
6000
E000
C000
C000
C000
C000
C000
E000
6000
3810
3FF0
0FE0
0100
0180
0180
0700
ENDCHAR
STARTCHAR Egrave
ENCODING 200
SWIDTH 631 0
DWIDTH 13 0
BBX 9 19 2 0
BITMAP
1800
0800
0C00
0000
FF80
FF80
C000
C000
C000
C000
FF80
FF80
C000
C000
C000
C000
C000
FF80
FF80
ENDCHAR
STARTCHAR Eacute
ENCODING 201
SWIDTH 631 0
DWIDTH 13 0
BBX 9 19 2 0
BITMAP
0600
0C00
0800
0000
FF80
FF80
C000
C000
C000
C000
FF80
FF80
C000
C000
C000
C000
C000
FF80
FF80
ENDCHAR
STARTCHAR Ecircumflex
ENCODING 202
SWIDTH 631 0
DWIDTH 13 0
BBX 9 19 2 0
BITMAP
1C00
1600
2200
0000
FF80
FF80
C000
C000
C000
C000
FF80
FF80
C000
C000
C000
C000
C000
FF80
FF80
ENDCHAR
STARTCHAR Edieresis
ENCODING 203
SWIDTH 631 0
DWIDTH 13 0
BBX 9 19 2 0
BITMAP
3300
3300
0000
0000
FF80
FF80
C000
C000
C000
C000
FF80
FF80
C000
C000
C000
C000
C000
FF80
FF80
ENDCHAR
STARTCHAR Igrave
ENCODING 204
SWIDTH 294 0
DWIDTH 6 0
BBX 3 19 1 0
BITMAP
C0
60
20
00
60
60
60
60
60
60
60
60
60
60
60
60
60
60
60
ENDCHAR
STARTCHAR Iacute
ENCODING 205
SWIDTH 294 0
DWIDTH 6 0
BBX 3 19 2 0
BITMAP
20
60
C0
00
C0
C0
C0
C0
C0
C0
C0
C0
C0
C0
C0
C0
C0
C0
C0
ENDCHAR
STARTCHAR Icircumflex
ENCODING 206
SWIDTH 294 0
DWIDTH 6 0
BBX 6 19 0 0
BITMAP
30
78
CC
00
30
30
30
30
30
30
30
30
30
30
30
30
30
30
30
ENDCHAR
STARTCHAR Idieresis
ENCODING 207
SWIDTH 294 0
DWIDTH 6 0
BBX 6 19 0 0
BITMAP
CC
CC
00
00
30
30
30
30
30
30
30
30
30
30
30
30
30
30
30
ENDCHAR
STARTCHAR Eth
ENCODING 208
SWIDTH 774 0
DWIDTH 15 0
BBX 14 15 0 0
BITMAP
3FC0
3FF0
3078
3018
301C
300C
FE0C
FE0C
300C
300C
301C
3018
3078
3FF0
3FC0
ENDCHAR
STARTCHAR Ntilde
ENCODING 209
SWIDTH 748 0
DWIDTH 15 0
BBX 11 18 2 0
BITMAP
1D00
1700
0000
E060
F060
F060
F860
D860
DC60
CC60
CE60
C660
C760
C360
C3E0
C1E0
C0E0
C0E0
ENDCHAR
STARTCHAR Ograve
ENCODING 210
SWIDTH 787 0
DWIDTH 16 0
BBX 14 19 1 0
BITMAP
0600
0300
0100
0000
0FC0
3FF0
3870
6018
E01C
C00C
C00C
C00C
C00C
C00C
E01C
6018
3870
3FF0
0FC0
ENDCHAR
STARTCHAR Oacute
ENCODING 211
SWIDTH 787 0
DWIDTH 16 0
BBX 14 19 1 0
BITMAP
0180
0100
0300
0000
0FC0
3FF0
3870
6018
E01C
C00C
C00C
C00C
C00C
C00C
E01C
6018
3870
3FF0
0FC0
ENDCHAR
STARTCHAR Ocircumflex
ENCODING 212
SWIDTH 787 0
DWIDTH 16 0
BBX 14 19 1 0
BITMAP
0300
0580
0CC0
0000
0FC0
3FF0
3870
6018
E01C
C00C
C00C
C00C
C00C
C00C
E01C
6018
3870
3FF0
0FC0
ENDCHAR
STARTCHAR Otilde
ENCODING 213
SWIDTH 787 0
DWIDTH 16 0
BBX 14 18 1 0
BITMAP
0E40
0980
0000
0FC0
3FF0
3870
6018
E01C
C00C
C00C
C00C
C00C
C00C
E01C
6018
3870
3FF0
0FC0
ENDCHAR
STARTCHAR Odieresis
ENCODING 214
SWIDTH 787 0
DWIDTH 16 0
BBX 14 19 1 0
BITMAP
0CC0
0CC0
0000
0000
0FC0
3FF0
3870
6018
E01C
C00C
C00C
C00C
C00C
C00C
E01C
6018
3870
3FF0
0FC0
ENDCHAR
STARTCHAR multiply
ENCODING 215
SWIDTH 837 0
DWIDTH 17 0
BBX 11 11 3 1
BITMAP
4040
E0E0
71C0
3B80
1F00
0E00
1F00
3B80
71C0
E0E0
4040
ENDCHAR
STARTCHAR Oslash
ENCODING 216
SWIDTH 787 0
DWIDTH 16 0
BBX 14 15 1 0
BITMAP
0FC4
3FE8
7878
6038
E078
C0CC
C18C
C30C
C60C
CC0C
781C
7018
7878
5FF0
8FC0
ENDCHAR
STARTCHAR Ugrave
ENCODING 217
SWIDTH 731 0
DWIDTH 15 0
BBX 11 19 2 0
BITMAP
0800
0C00
0600
0000
C060
C060
C060
C060
C060
C060
C060
C060
C060
C060
C060
E0E0
60C0
7FC0
1F00
ENDCHAR
STARTCHAR Uacute
ENCODING 218
SWIDTH 731 0
DWIDTH 15 0
BBX 11 19 2 0
BITMAP
0300
0600
0400
0000
C060
C060
C060
C060
C060
C060
C060
C060
C060
C060
C060
E0E0
60C0
7FC0
1F00
ENDCHAR
STARTCHAR Ucircumflex
ENCODING 219
SWIDTH 731 0
DWIDTH 15 0
BBX 11 19 2 0
BITMAP
0E00
1A00
1100
0000
C060
C060
C060
C060
C060
C060
C060
C060
C060
C060
C060
E0E0
60C0
7FC0
1F00
ENDCHAR
STARTCHAR Udieresis
ENCODING 220
SWIDTH 731 0
DWIDTH 15 0
BBX 11 19 2 0
BITMAP
3300
3300
0000
0000
C060
C060
C060
C060
C060
C060
C060
C060
C060
C060
C060
E0E0
60C0
7FC0
1F00
ENDCHAR
STARTCHAR Yacute
ENCODING 221
SWIDTH 610 0
DWIDTH 12 0
BBX 12 19 0 0
BITMAP
0100
0300
0600
0000
E070
6060
30C0
39C0
1980
1F80
0F00
0600
0600
0600
0600
0600
0600
0600
0600
ENDCHAR
STARTCHAR Thorn
ENCODING 222
SWIDTH 604 0
DWIDTH 12 0
BBX 9 15 2 0
BITMAP
C000
C000
C000
FE00
FF00
C380
C180
C180
C180
C380
FF00
FE00
C000
C000
C000
ENDCHAR
STARTCHAR germandbls
ENCODING 223
SWIDTH 629 0
DWIDTH 13 0
BBX 10 15 2 0
BITMAP
3E00
7F00
E380
C180
C780
CC00
CC00
CE00
C700
C180
C0C0
C0C0
D1C0
DF80
CF00
ENDCHAR
STARTCHAR agrave
ENCODING 224
SWIDTH 612 0
DWIDTH 12 0
BBX 9 16 1 0
BITMAP
6000
3000
1800
0800
0000
3E00
7F00
4380
0180
3F80
7F80
C180
C180
C380
FF80
7D80
ENDCHAR
STARTCHAR aacute
ENCODING 225
SWIDTH 612 0
DWIDTH 12 0
BBX 9 16 1 0
BITMAP
0600
0600
0C00
1800
0000
3E00
7F00
4380
0180
3F80
7F80
C180
C180
C380
FF80
7D80
ENDCHAR
STARTCHAR acircumflex
ENCODING 226
SWIDTH 612 0
DWIDTH 12 0
BBX 9 16 1 0
BITMAP
0C00
1C00
1200
2300
0000
3E00
7F00
4380
0180
3F80
7F80
C180
C180
C380
FF80
7D80
ENDCHAR
STARTCHAR atilde
ENCODING 227
SWIDTH 612 0
DWIDTH 12 0
BBX 9 16 1 0
BITMAP
3900
2D00
2600
0000
0000
3E00
7F00
4380
0180
3F80
7F80
C180
C180
C380
FF80
7D80
ENDCHAR
STARTCHAR adieresis
ENCODING 228
SWIDTH 612 0
DWIDTH 12 0
BBX 9 15 1 0
BITMAP
3300
3300
0000
0000
3E00
7F00
4380
0180
3F80
7F80
C180
C180
C380
FF80
7D80
ENDCHAR
STARTCHAR aring
ENCODING 229
SWIDTH 612 0
DWIDTH 12 0
BBX 9 17 1 0
BITMAP
1C00
2600
2200
2600
1C00
0000
3E00
7F00
4380
0180
3F80
7F80
C180
C180
C380
FF80
7D80
ENDCHAR
STARTCHAR ae
ENCODING 230
SWIDTH 981 0
DWIDTH 19 0
BBX 17 11 1 0
BITMAP
3E3E00
7F7F00
43C300
018180
3FFF80
7FFF80
C18000
C18000
C3E080
FEFF80
3C3F00
ENDCHAR
STARTCHAR ccedilla
ENCODING 231
SWIDTH 549 0
DWIDTH 11 0
BBX 9 15 1 -4
BITMAP
1F00
7F80
7080
E000
C000
C000
C000
E000
7080
7F80
1F00
0600
0600
0600
1E00
ENDCHAR
STARTCHAR egrave
ENCODING 232
SWIDTH 615 0
DWIDTH 12 0
BBX 10 16 1 0
BITMAP
3000
1800
1800
0C00
0000
1F00
7F80
61C0
C0C0
FFC0
FFC0
C000
C000
7040
3FC0
1F80
ENDCHAR
STARTCHAR eacute
ENCODING 233
SWIDTH 615 0
DWIDTH 12 0
BBX 10 16 1 0
BITMAP
0300
0600
0C00
0800
0000
1F00
7F80
61C0
C0C0
FFC0
FFC0
C000
C000
7040
3FC0
1F80
ENDCHAR
STARTCHAR ecircumflex
ENCODING 234
SWIDTH 615 0
DWIDTH 12 0
BBX 10 16 1 0
BITMAP
0C00
0E00
1A00
1100
0000
1F00
7F80
61C0
C0C0
FFC0
FFC0
C000
C000
7040
3FC0
1F80
ENDCHAR
STARTCHAR edieresis
ENCODING 235
SWIDTH 615 0
DWIDTH 12 0
BBX 10 15 1 0
BITMAP
3300
3300
0000
0000
1F00
7F80
61C0
C0C0
FFC0
FFC0
C000
C000
7040
3FC0
1F80
ENDCHAR
STARTCHAR igrave
ENCODING 236
SWIDTH 277 0
DWIDTH 6 0
BBX 5 16 -1 0
BITMAP
C0
60
30
10
00
18
18
18
18
18
18
18
18
18
18
18
ENDCHAR
STARTCHAR iacute
ENCODING 237
SWIDTH 277 0
DWIDTH 6 0
BBX 4 16 1 0
BITMAP
30
30
60
C0
00
60
60
60
60
60
60
60
60
60
60
60
ENDCHAR
STARTCHAR icircumflex
ENCODING 238
SWIDTH 277 0
DWIDTH 6 0
BBX 5 16 0 0
BITMAP
30
70
58
88
00
30
30
30
30
30
30
30
30
30
30
30
ENDCHAR
STARTCHAR idieresis
ENCODING 239
SWIDTH 277 0
DWIDTH 6 0
BBX 6 15 0 0
BITMAP
CC
CC
00
00
30
30
30
30
30
30
30
30
30
30
30
ENDCHAR
STARTCHAR eth
ENCODING 240
SWIDTH 611 0
DWIDTH 12 0
BBX 10 15 1 0
BITMAP
1080
1F00
7C00
0600
1F00
7F80
6180
C0C0
C0C0
C0C0
C0C0
C0C0
6180
7F80
1E00
ENDCHAR
STARTCHAR ntilde
ENCODING 241
SWIDTH 633 0
DWIDTH 13 0
BBX 9 16 2 0
BITMAP
3A00
2A00
2E00
0000
0000
DE00
FF00
E380
C180
C180
C180
C180
C180
C180
C180
C180
ENDCHAR
STARTCHAR ograve
ENCODING 242
SWIDTH 611 0
DWIDTH 12 0
BBX 10 16 1 0
BITMAP
3000
3000
1800
0C00
0000
1E00
7F80
6180
C0C0
C0C0
C0C0
C0C0
C0C0
6180
7F80
1E00
ENDCHAR
STARTCHAR oacute
ENCODING 243
SWIDTH 611 0
DWIDTH 12 0
BBX 10 16 1 0
BITMAP
0300
0600
0C00
1800
0000
1E00
7F80
6180
C0C0
C0C0
C0C0
C0C0
C0C0
6180
7F80
1E00
ENDCHAR
STARTCHAR ocircumflex
ENCODING 244
SWIDTH 611 0
DWIDTH 12 0
BBX 10 16 1 0
BITMAP
0C00
0E00
1200
3300
0000
1E00
7F80
6180
C0C0
C0C0
C0C0
C0C0
C0C0
6180
7F80
1E00
ENDCHAR
STARTCHAR otilde
ENCODING 245
SWIDTH 611 0
DWIDTH 12 0
BBX 10 16 1 0
BITMAP
1900
2D00
2600
0000
0000
1E00
7F80
6180
C0C0
C0C0
C0C0
C0C0
C0C0
6180
7F80
1E00
ENDCHAR
STARTCHAR odieresis
ENCODING 246
SWIDTH 611 0
DWIDTH 12 0
BBX 10 15 1 0
BITMAP
3300
3300
0000
0000
1E00
7F80
6180
C0C0
C0C0
C0C0
C0C0
C0C0
6180
7F80
1E00
ENDCHAR
STARTCHAR divide
ENCODING 247
SWIDTH 837 0
DWIDTH 17 0
BBX 12 10 2 1
BITMAP
0600
0600
0000
0000
FFF0
FFF0
0000
0000
0600
0600
ENDCHAR
STARTCHAR oslash
ENCODING 248
SWIDTH 611 0
DWIDTH 12 0
BBX 10 13 1 -1
BITMAP
0040
1E40
7F80
6180
C3C0
C6C0
CCC0
D8C0
F0C0
6180
7F80
9E00
8000
ENDCHAR
STARTCHAR ugrave
ENCODING 249
SWIDTH 633 0
DWIDTH 13 0
BBX 9 16 2 0
BITMAP
6000
6000
3000
1800
0000
C180
C180
C180
C180
C180
C180
C180
C180
E380
7F80
3D80
ENDCHAR
STARTCHAR uacute
ENCODING 250
SWIDTH 633 0
DWIDTH 13 0
BBX 9 16 2 0
BITMAP
0600
0C00
1800
1000
0000
C180
C180
C180
C180
C180
C180
C180
C180
E380
7F80
3D80
ENDCHAR
STARTCHAR ucircumflex
ENCODING 251
SWIDTH 633 0
DWIDTH 13 0
BBX 9 16 2 0
BITMAP
1800
1C00
2400
6200
0000
C180
C180
C180
C180
C180
C180
C180
C180
E380
7F80
3D80
ENDCHAR
STARTCHAR udieresis
ENCODING 252
SWIDTH 633 0
DWIDTH 13 0
BBX 9 15 2 0
BITMAP
6600
6600
0000
0000
C180
C180
C180
C180
C180
C180
C180
C180
E380
7F80
3D80
ENDCHAR
STARTCHAR yacute
ENCODING 253
SWIDTH 591 0
DWIDTH 11 0
BBX 11 20 0 -4
BITMAP
0300
0300
0600
0C00
0000
C060
60C0
60C0
7180
3180
3B80
1B00
1B00
0E00
0E00
0C00
0C00
0C00
7800
7000
ENDCHAR
STARTCHAR thorn
ENCODING 254
SWIDTH 634 0
DWIDTH 13 0
BBX 10 19 2 -4
BITMAP
C000
C000
C000
C000
DF00
FF80
E180
C0C0
C0C0
C0C0
C0C0
C0C0
E180
FF80
DF00
C000
C000
C000
C000
ENDCHAR
STARTCHAR ydieresis
ENCODING 255
SWIDTH 591 0
DWIDTH 11 0
BBX 11 19 0 -4
BITMAP
1980
1980
0000
0000
C060
60C0
60C0
7180
3180
3B80
1B00
1B00
0E00
0E00
0C00
0C00
0C00
7800
7000
ENDCHAR
STARTCHAR Cacute
ENCODING 262
SWIDTH 698 0
DWIDTH 14 0
BBX 12 19 1 0
BITMAP
0080
0180
0300
0000
0FE0
3FF0
3810
6000
E000
C000
C000
C000
C000
C000
E000
6000
3810
3FF0
0FE0
ENDCHAR
STARTCHAR cacute
ENCODING 263
SWIDTH 549 0
DWIDTH 11 0
BBX 9 16 1 0
BITMAP
0300
0600
0C00
0800
0000
1F00
7F80
7080
E000
C000
C000
C000
E000
7080
7F80
1F00
ENDCHAR
STARTCHAR Ccaron
ENCODING 268
SWIDTH 698 0
DWIDTH 14 0
BBX 12 19 1 0
BITMAP
0CC0
0780
0300
0000
0FE0
3FF0
3810
6000
E000
C000
C000
C000
C000
C000
E000
6000
3810
3FF0
0FE0
ENDCHAR
STARTCHAR ccaron
ENCODING 269
SWIDTH 549 0
DWIDTH 11 0
BBX 9 16 1 0
BITMAP
1100
1A00
0E00
0C00
0000
1F00
7F80
7080
E000
C000
C000
C000
E000
7080
7F80
1F00
ENDCHAR
STARTCHAR dcroat
ENCODING 273
SWIDTH 634 0
DWIDTH 13 0
BBX 12 15 1 0
BITMAP
00C0
00C0
07F0
00C0
3EC0
7FC0
61C0
C0C0
C0C0
C0C0
C0C0
C0C0
61C0
7FC0
3EC0
ENDCHAR
STARTCHAR Gbreve
ENCODING 286
SWIDTH 774 0
DWIDTH 16 0
BBX 13 18 1 0
BITMAP
08C0
0780
0000
0FE0
3FF0
7810
6000
E000
C000
C000
C0F8
C0F8
C018
E018
6018
3818
1FF0
0FC0
ENDCHAR
STARTCHAR gbreve
ENCODING 287
SWIDTH 634 0
DWIDTH 13 0
BBX 10 20 1 -4
BITMAP
3100
1F00
0E00
0000
0000
3EC0
7FC0
61C0
C0C0
C0C0
C0C0
C0C0
C0C0
61C0
7FC0
3EC0
00C0
4180
7F80
3E00
ENDCHAR
STARTCHAR Idotaccent
ENCODING 304
SWIDTH 294 0
DWIDTH 6 0
BBX 2 18 2 0
BITMAP
C0
C0
00
C0
C0
C0
C0
C0
C0
C0
C0
C0
C0
C0
C0
C0
C0
C0
ENDCHAR
STARTCHAR dotlessi
ENCODING 305
SWIDTH 277 0
DWIDTH 6 0
BBX 2 11 2 0
BITMAP
C0
C0
C0
C0
C0
C0
C0
C0
C0
C0
C0
ENDCHAR
STARTCHAR Lslash
ENCODING 321
SWIDTH 562 0
DWIDTH 11 0
BBX 11 15 0 0
BITMAP
3000
3000
3000
3000
3300
3600
3C00
3000
7000
B000
3000
3000
3000
3FE0
3FE0
ENDCHAR
STARTCHAR lslash
ENCODING 322
SWIDTH 284 0
DWIDTH 6 0
BBX 6 15 0 0
BITMAP
30
30
30
30
30
3C
38
70
F0
30
30
30
30
30
30
ENDCHAR
STARTCHAR OE
ENCODING 338
SWIDTH 1069 0
DWIDTH 21 0
BBX 19 15 1 0
BITMAP
07FFE0
1FFFE0
383000
703000
E03000
C03000
C03FE0
C03FE0
C03000
C03000
E03000
703000
383000
1FFFE0
07FFE0
ENDCHAR
STARTCHAR oe
ENCODING 339
SWIDTH 1022 0
DWIDTH 20 0
BBX 18 11 1 0
BITMAP
1E1F00
7FFF80
61E1C0
C0C0C0
C0FFC0
C0FFC0
C0C000
C0C000
61F040
7FFFC0
1E1F80
ENDCHAR
STARTCHAR Scedilla
ENCODING 350
SWIDTH 634 0
DWIDTH 13 0
BBX 10 19 1 -4
BITMAP
3F00
7F80
E080
C000
C000
E000
7C00
3F00
0380
00C0
00C0
00C0
81C0
FF80
7F00
0600
0600
0600
1E00
ENDCHAR
STARTCHAR scedilla
ENCODING 351
SWIDTH 520 0
DWIDTH 10 0
BBX 8 15 1 -4
BITMAP
3E
FF
C1
C0
FC
3E
07
03
83
FF
7C
0C
0C
0C
3C
ENDCHAR
STARTCHAR Scaron
ENCODING 352
SWIDTH 634 0
DWIDTH 13 0
BBX 10 19 1 0
BITMAP
1100
1A00
0E00
0000
3F00
7F80
E080
C000
C000
E000
7C00
3F00
0380
00C0
00C0
00C0
81C0
FF80
7F00
ENDCHAR
STARTCHAR scaron
ENCODING 353
SWIDTH 520 0
DWIDTH 10 0
BBX 8 16 1 0
BITMAP
22
34
1C
18
00
3E
FF
C1
C0
FC
3E
07
03
83
FF
7C
ENDCHAR
STARTCHAR Ydieresis
ENCODING 376
SWIDTH 610 0
DWIDTH 12 0
BBX 12 19 0 0
BITMAP
1980
1980
0000
0000
E070
6060
30C0
39C0
1980
1F80
0F00
0600
0600
0600
0600
0600
0600
0600
0600
ENDCHAR
STARTCHAR Zcaron
ENCODING 381
SWIDTH 685 0
DWIDTH 14 0
BBX 12 19 1 0
BITMAP
1980
0B00
0600
0000
FFF0
FFF0
0060
00C0
01C0
0380
0700
0600
0C00
1C00
3800
3000
6000
FFF0
FFF0
ENDCHAR
STARTCHAR zcaron
ENCODING 382
SWIDTH 524 0
DWIDTH 11 0
BBX 9 16 1 0
BITMAP
2200
3400
1C00
1800
0000
FF80
FF80
0300
0600
0E00
1C00
3800
3000
7000
FF80
FF80
ENDCHAR
STARTCHAR florin
ENCODING 402
SWIDTH 636 0
DWIDTH 13 0
BBX 12 19 0 -4
BITMAP
00F0
01F0
0180
0300
0300
0300
0300
1FC0
1FC0
0600
0600
0600
0600
0400
0C00
0C00
1C00
F800
F000
ENDCHAR
STARTCHAR circumflex
ENCODING 710
SWIDTH 500 0
DWIDTH 10 0
BBX 6 4 2 12
BITMAP
30
78
48
CC
ENDCHAR
STARTCHAR caron
ENCODING 711
SWIDTH 500 0
DWIDTH 10 0
BBX 6 4 2 12
BITMAP
CC
48
78
30
ENDCHAR
STARTCHAR breve
ENCODING 728
SWIDTH 500 0
DWIDTH 10 0
BBX 6 3 2 13
BITMAP
84
FC
78
ENDCHAR
STARTCHAR dotaccent
ENCODING 729
SWIDTH 500 0
DWIDTH 10 0
BBX 2 2 4 13
BITMAP
C0
C0
ENDCHAR
STARTCHAR ring
ENCODING 730
SWIDTH 500 0
DWIDTH 10 0
BBX 5 5 2 12
BITMAP
70
88
88
88
70
ENDCHAR
STARTCHAR ogonek
ENCODING 731
SWIDTH 500 0
DWIDTH 10 0
BBX 4 4 3 -4
BITMAP
40
C0
C0
70
ENDCHAR
STARTCHAR tilde
ENCODING 732
SWIDTH 500 0
DWIDTH 10 0
BBX 6 3 2 13
BITMAP
64
B4
98
ENDCHAR
STARTCHAR hungarumlaut
ENCODING 733
SWIDTH 500 0
DWIDTH 10 0
BBX 8 4 2 12
BITMAP
33
66
44
CC
ENDCHAR
STARTCHAR Omega
ENCODING 937
SWIDTH 764 0
DWIDTH 15 0
BBX 13 15 1 0
BITMAP
0F80
3FE0
7070
6030
C018
C018
C018
C018
C018
E038
6030
3060
38E0
FDF8
FDF8
ENDCHAR
STARTCHAR pi
ENCODING 960
SWIDTH 588 0
DWIDTH 12 0
BBX 12 10 0 0
BITMAP
7FF0
FFF0
D8C0
18C0
30C0
3180
3180
3180
61E0
60E0
ENDCHAR
STARTCHAR endash
ENCODING 8211
SWIDTH 500 0
DWIDTH 10 0
BBX 10 2 0 4
BITMAP
FFC0
FFC0
ENDCHAR
STARTCHAR emdash
ENCODING 8212
SWIDTH 1000 0
DWIDTH 20 0
BBX 20 2 0 4
BITMAP
FFFFF0
FFFFF0
ENDCHAR
STARTCHAR quoteleft
ENCODING 8216
SWIDTH 317 0
DWIDTH 6 0
BBX 3 5 2 10
BITMAP
20
60
C0
C0
C0
ENDCHAR
STARTCHAR quoteright
ENCODING 8217
SWIDTH 317 0
DWIDTH 6 0
BBX 3 5 2 10
BITMAP
60
60
40
C0
80
ENDCHAR
STARTCHAR quotesinglbase
ENCODING 8218
SWIDTH 317 0
DWIDTH 6 0
BBX 3 5 2 -3
BITMAP
60
60
60
C0
80
ENDCHAR
STARTCHAR quotedblleft
ENCODING 8220
SWIDTH 518 0
DWIDTH 10 0
BBX 7 5 2 10
BITMAP
22
66
CC
CC
CC
ENDCHAR
STARTCHAR quotedblright
ENCODING 8221
SWIDTH 518 0
DWIDTH 10 0
BBX 7 5 2 10
BITMAP
66
66
66
CC
88
ENDCHAR
STARTCHAR quotedblbase
ENCODING 8222
SWIDTH 518 0
DWIDTH 10 0
BBX 7 5 2 -3
BITMAP
66
66
66
CC
88
ENDCHAR
STARTCHAR dagger
ENCODING 8224
SWIDTH 500 0
DWIDTH 10 0
BBX 10 17 0 -2
BITMAP
0C00
0C00
0C00
0C00
FFC0
FFC0
0C00
0C00
0C00
0C00
0C00
0C00
0C00
0C00
0C00
0C00
0C00
ENDCHAR
STARTCHAR daggerdbl
ENCODING 8225
SWIDTH 500 0
DWIDTH 10 0
BBX 10 17 0 -2
BITMAP
0C00
0C00
0C00
0C00
FFC0
FFC0
0C00
0C00
0C00
0C00
0C00
FFC0
FFC0
0C00
0C00
0C00
0C00
ENDCHAR
STARTCHAR bullet
ENCODING 8226
SWIDTH 589 0
DWIDTH 12 0
BBX 6 6 3 4
BITMAP
78
FC
FC
FC
FC
78
ENDCHAR
STARTCHAR ellipsis
ENCODING 8230
SWIDTH 1000 0
DWIDTH 20 0
BBX 16 2 2 0
BITMAP
C183
C183
ENDCHAR
STARTCHAR perthousand
ENCODING 8240
SWIDTH 1341 0
DWIDTH 27 0
BBX 25 15 0 0
BITMAP
38080000
6C080000
C6100000
C6300000
C6200000
C6400000
6C400000
388E0E00
011B1B00
0131B180
0231B180
0631B180
0431B180
081B1B00
080E0E00
ENDCHAR
STARTCHAR guilsinglleft
ENCODING 8249
SWIDTH 399 0
DWIDTH 8 0
BBX 5 9 2 1
BITMAP
08
18
30
40
80
40
30
18
08
ENDCHAR
STARTCHAR guilsinglright
ENCODING 8250
SWIDTH 399 0
DWIDTH 8 0
BBX 5 9 2 1
BITMAP
80
C0
60
10
08
10
60
C0
80
ENDCHAR
STARTCHAR Euro
ENCODING 8364
SWIDTH 636 0
DWIDTH 13 0
BBX 12 15 0 0
BITMAP
03E0
0FF0
1C10
1800
3800
3000
FFC0
3000
3000
FF00
3000
1800
1C10
0FF0
03E0
ENDCHAR
STARTCHAR trademark
ENCODING 8482
SWIDTH 1000 0
DWIDTH 20 0
BBX 13 6 3 9
BITMAP
FB18
23B8
22A8
2248
2208
2208
ENDCHAR
STARTCHAR partialdiff
ENCODING 8706
SWIDTH 517 0
DWIDTH 10 0
BBX 8 13 0 0
BITMAP
1C
32
01
01
01
39
67
C3
C3
C2
C2
44
38
ENDCHAR
STARTCHAR Delta
ENCODING 8710
SWIDTH 668 0
DWIDTH 13 0
BBX 14 14 0 0
BITMAP
0300
0780
0780
0CC0
0CC0
08C0
1860
1860
3030
3030
6018
6018
7FF8
FFFC
ENDCHAR
STARTCHAR product
ENCODING 8719
SWIDTH 756 0
DWIDTH 15 0
BBX 12 18 2 -3
BITMAP
FFF0
FFF0
C030
C030
C030
C030
C030
C030
C030
C030
C030
C030
C030
C030
C030
C030
C030
C030
ENDCHAR
STARTCHAR summation
ENCODING 8721
SWIDTH 673 0
DWIDTH 13 0
BBX 13 18 0 -4
BITMAP
FFF8
FFF8
7000
3800
1C00
0E00
0700
0380
01C0
0180
0300
0600
0C00
1800
3000
7000
FFF8
FFF8
ENDCHAR
STARTCHAR minus
ENCODING 8722
SWIDTH 837 0
DWIDTH 17 0
BBX 13 2 2 5
BITMAP
FFF8
FFF8
ENDCHAR
STARTCHAR fraction
ENCODING 8725
SWIDTH 166 0
DWIDTH 3 0
BBX 11 15 -4 0
BITMAP
0060
0040
0080
0080
0100
0200
0200
0400
0800
0800
1000
2000
2000
4000
C000
ENDCHAR
STARTCHAR periodcentered
ENCODING 8729
SWIDTH 317 0
DWIDTH 6 0
BBX 2 2 2 6
BITMAP
C0
C0
ENDCHAR
STARTCHAR radical
ENCODING 8730
SWIDTH 637 0
DWIDTH 13 0
BBX 12 17 1 -1
BITMAP
0030
0020
0040
0040
0040
0080
0080
E180
2100
3100
3200
1200
1A00
1C00
0C00
0C00
0800
ENDCHAR
STARTCHAR infinity
ENCODING 8734
SWIDTH 833 0
DWIDTH 17 0
BBX 12 7 2 2
BITMAP
79E0
CF30
8610
8610
8610
4D20
38E0
ENDCHAR
STARTCHAR integral
ENCODING 8747
SWIDTH 520 0
DWIDTH 10 0
BBX 10 19 0 -4
BITMAP
03C0
06C0
04C0
0400
0C00
0C00
0C00
0C00
0C00
0C00
0C00
0C00
0C00
0C00
0C00
0800
C800
D800
F000
ENDCHAR
STARTCHAR approxequal
ENCODING 8776
SWIDTH 837 0
DWIDTH 17 0
BBX 13 7 2 3
BITMAP
3E08
FFF8
83E0
0000
3E08
FFF8
C3E0
ENDCHAR
STARTCHAR notequal
ENCODING 8800
SWIDTH 837 0
DWIDTH 17 0
BBX 13 12 2 0
BITMAP
0020
0060
00C0
FFF8
FFF8
0300
0600
FFF8
FFF8
1800
3000
2000
ENDCHAR
STARTCHAR lessequal
ENCODING 8804
SWIDTH 837 0
DWIDTH 17 0
BBX 13 12 2 0
BITMAP
0018
00F8
0FF0
7F00
F000
7F00
0FF0
00F8
0018
0000
FFF8
FFF8
ENDCHAR
STARTCHAR greaterequal
ENCODING 8805
SWIDTH 837 0
DWIDTH 17 0
BBX 13 12 2 0
BITMAP
C000
F800
3F80
07F0
0078
07F0
3F80
F800
C000
0000
FFF8
FFF8
ENDCHAR
STARTCHAR lozenge
ENCODING 9674
SWIDTH 494 0
DWIDTH 10 0
BBX 10 19 0 -4
BITMAP
0C00
0C00
1200
1200
2100
2100
6180
4080
C0C0
8040
C0C0
4080
6180
2100
3300
1200
1E00
0C00
0C00
ENDCHAR
STARTCHAR fi
ENCODING 64257
SWIDTH 629 0
DWIDTH 13 0
BBX 11 15 0 0
BITMAP
1E60
3E60
3000
3000
FFE0
FFE0
3060
3060
3060
3060
3060
3060
3060
3060
3060
ENDCHAR
STARTCHAR fl
ENCODING 64258
SWIDTH 629 0
DWIDTH 13 0
BBX 11 15 0 0
BITMAP
1FE0
3FE0
3060
3060
FE60
FE60
3060
3060
3060
3060
3060
3060
3060
3060
3060
ENDCHAR
STARTCHAR .notdef
ENCODING -1
SWIDTH 600 0
DWIDTH 12 0
BBX 10 18 1 -4
BITMAP
FFC0
8040
8040
8040
8040
8040
8040
8040
8040
8040
8040
8040
8040
8040
8040
8040
8040
FFC0
ENDCHAR
STARTCHAR .null
ENCODING -1
SWIDTH 0 0
DWIDTH 0 0
BBX 1 1 0 0
BITMAP
00
ENDCHAR
STARTCHAR nonmarkingreturn
ENCODING -1
SWIDTH 317 0
DWIDTH 6 0
BBX 1 1 0 0
BITMAP
00
ENDCHAR
STARTCHAR c6459
ENCODING -1
SWIDTH 500 0
DWIDTH 10 0
BBX 6 2 2 13
BITMAP
CC
CC
ENDCHAR
STARTCHAR c6460
ENCODING -1
SWIDTH 500 0
DWIDTH 10 0
BBX 3 3 4 12
BITMAP
20
60
C0
ENDCHAR
STARTCHAR c6461
ENCODING -1
SWIDTH 500 0
DWIDTH 10 0
BBX 6 2 2 12
BITMAP
64
98
ENDCHAR
STARTCHAR c6462
ENCODING -1
SWIDTH 500 0
DWIDTH 10 0
BBX 3 3 3 12
BITMAP
C0
60
20
ENDCHAR
STARTCHAR c6463
ENCODING -1
SWIDTH 500 0
DWIDTH 10 0
BBX 6 3 2 12
BITMAP
30
78
CC
ENDCHAR
STARTCHAR c6466
ENCODING -1
SWIDTH 500 0
DWIDTH 10 0
BBX 6 3 2 12
BITMAP
CC
78
30
ENDCHAR
STARTCHAR c6467
ENCODING -1
SWIDTH 400 0
DWIDTH 8 0
BBX 6 8 1 7
BITMAP
08
18
28
48
88
FC
08
08
ENDCHAR
STARTCHAR c6468
ENCODING -1
SWIDTH 500 0
DWIDTH 10 0
BBX 6 2 2 12
BITMAP
84
78
ENDCHAR
STARTCHAR c6469
ENCODING -1
SWIDTH 500 0
DWIDTH 10 0
BBX 2 2 4 12
BITMAP
C0
C0
ENDCHAR
ENDFONT
