STARTFONT 2.1
FONT -FontForge-Bitstream Vera Sans-Bold-R-Normal-Sans--32-310-75-75-P-210-ISO10646-1
SIZE 31 75 75
FONTBOUNDINGBOX 51 38 -6 -8
COMMENT "Generated by fontforge, http://fontforge.sourceforge.net"
COMMENT "Copyright (c) 2003 by Bitstream, Inc. All Rights Reserved."
STARTPROPERTIES 40
FOUNDRY "FontForge"
FAMILY_NAME "Bitstream Vera Sans"
WEIGHT_NAME "Bold"
SLANT "R"
SETWIDTH_NAME "Normal"
ADD_STYLE_NAME "Sans"
PIXEL_SIZE 32
POINT_SIZE 310
RESOLUTION_X 75
RESOLUTION_Y 75
SPACING "P"
AVERAGE_WIDTH 210
CHARSET_REGISTRY "ISO10646"
CHARSET_ENCODING "1"
FONTNAME_REGISTRY ""
CHARSET_COLLECTIONS "ISO8859-9 ISO10646-1"
FONT_NAME "BitstreamVeraSans-Bold"
FACE_NAME "Bitstream Vera Sans Bold"
COPYRIGHT "Copyright (c) 2003 by Bitstream, Inc. All Rights Reserved."
FONT_VERSION "Release 1.10"
FONT_ASCENT 24
FONT_DESCENT 8
UNDERLINE_POSITION -6
UNDERLINE_THICKNESS 5
X_HEIGHT 17
CAP_HEIGHT 22
RAW_ASCENT 759
RAW_DESCENT 240
NORM_SPACE 11
RELATIVE_WEIGHT 70
RELATIVE_SETWIDTH 50
SUPERSCRIPT_X 0
SUPERSCRIPT_Y 9
SUPERSCRIPT_SIZE 19
SUBSCRIPT_X 0
SUBSCRIPT_Y -6
SUBSCRIPT_SIZE 19
FIGURE_WIDTH 22
AVG_LOWERCASE_WIDTH 208
AVG_UPPERCASE_WIDTH 238
ENDPROPERTIES
CHARS 267
STARTCHAR space
ENCODING 32
SWIDTH 348 0
DWIDTH 11 0
BBX 1 1 0 0
BITMAP
00
ENDCHAR
STARTCHAR exclam
ENCODING 33
SWIDTH 456 0
DWIDTH 15 0
BBX 6 23 4 0
BITMAP
FC
FC
FC
FC
FC
FC
FC
FC
FC
FC
FC
FC
7C
78
78
00
00
FC
FC
FC
FC
FC
FC
ENDCHAR
STARTCHAR quotedbl
ENCODING 34
SWIDTH 520 0
DWIDTH 17 0
BBX 11 9 3 14
BITMAP
F1E0
F1E0
F1E0
F1E0
F1E0
F1E0
F1E0
F1E0
F1E0
ENDCHAR
STARTCHAR numbersign
ENCODING 35
SWIDTH 837 0
DWIDTH 27 0
BBX 22 23 2 0
BITMAP
00F0E0
00F0E0
00E1E0
00E1E0
01E1C0
01E1C0
01C3C0
3FFFFC
3FFFFC
3FFFFC
038780
038780
078700
078700
FFFFF0
FFFFF0
FFFFF0
0F0E00
0E1E00
0E1C00
1E1C00
1E1C00
1C3C00
ENDCHAR
STARTCHAR dollar
ENCODING 36
SWIDTH 695 0
DWIDTH 22 0
BBX 18 30 2 -5
BITMAP
01C000
01C000
01C000
01C000
0FF800
3FFF00
7FFF80
7FFF80
FDC780
F9C080
F9C000
F9C000
FFC000
7FFC00
3FFF00
1FFF80
01FFC0
01CFC0
01C7C0
81C7C0
F1CFC0
FFFF80
FFFF80
7FFF00
0FF800
01C000
01C000
01C000
01C000
01C000
ENDCHAR
STARTCHAR percent
ENCODING 37
SWIDTH 1001 0
DWIDTH 32 0
BBX 30 23 1 0
BITMAP
1F800F00
3FC00E00
7FE01E00
F9E03C00
F0F03800
F0F07800
F0F0F000
F0F0E000
F0F1E000
F9E1C000
7FE387E0
3FC78FF0
1F871FF8
000F3E78
001E3C3C
001C3C3C
003C3C3C
00783C3C
00703C3C
00F03E78
01E01FF8
01C00FF0
03C007E0
ENDCHAR
STARTCHAR ampersand
ENCODING 38
SWIDTH 872 0
DWIDTH 28 0
BBX 25 23 2 0
BITMAP
01FC0000
07FF0000
0FFF0000
1FFF0000
1F830000
1F800000
1F800000
0FC00000
07E00000
1FF01F00
3FF81F00
7FFC3F00
7EFC3E00
FC7E7E00
FC3FFE00
FC3FFC00
FC1FF800
FE0FF000
7F0FF800
7FFFFC00
3FFFFE00
1FFF7F00
07F83F80
ENDCHAR
STARTCHAR quotesingle
ENCODING 39
SWIDTH 306 0
DWIDTH 10 0
BBX 4 9 3 14
BITMAP
F0
F0
F0
F0
F0
F0
F0
F0
F0
ENDCHAR
STARTCHAR parenleft
ENCODING 40
SWIDTH 457 0
DWIDTH 15 0
BBX 9 29 3 -5
BITMAP
0F80
0F00
1F00
1E00
3E00
3E00
7C00
7C00
7C00
7C00
F800
F800
F800
F800
F800
F800
F800
F800
F800
7800
7C00
7C00
7C00
3E00
3E00
1E00
1F00
0F00
0F80
ENDCHAR
STARTCHAR parenright
ENCODING 41
SWIDTH 457 0
DWIDTH 15 0
BBX 9 29 3 -5
BITMAP
F800
7800
7C00
3C00
3E00
3E00
1F00
1F00
1F00
1F00
0F80
0F80
0F80
0F80
0F80
0F80
0F80
0F80
0F80
1F00
1F00
1F00
1F00
3E00
3E00
3C00
7C00
7800
F800
ENDCHAR
STARTCHAR asterisk
ENCODING 42
SWIDTH 522 0
DWIDTH 17 0
BBX 15 15 1 8
BITMAP
0380
0380
0380
4384
F39E
7FFC
1FF0
07C0
1FF0
7FFC
F39E
4384
0380
0380
0380
ENDCHAR
STARTCHAR plus
ENCODING 43
SWIDTH 837 0
DWIDTH 27 0
BBX 20 20 4 0
BITMAP
00F000
00F000
00F000
00F000
00F000
00F000
00F000
00F000
FFFFF0
FFFFF0
FFFFF0
FFFFF0
00F000
00F000
00F000
00F000
00F000
00F000
00F000
00F000
ENDCHAR
STARTCHAR comma
ENCODING 44
SWIDTH 379 0
DWIDTH 12 0
BBX 8 11 1 -5
BITMAP
3F
3F
3F
3F
3F
3F
7E
7C
78
F0
E0
ENDCHAR
STARTCHAR hyphen
ENCODING 45
SWIDTH 415 0
DWIDTH 13 0
BBX 10 5 2 7
BITMAP
FFC0
FFC0
FFC0
FFC0
FFC0
ENDCHAR
STARTCHAR period
ENCODING 46
SWIDTH 379 0
DWIDTH 12 0
BBX 6 6 3 0
BITMAP
FC
FC
FC
FC
FC
FC
ENDCHAR
STARTCHAR slash
ENCODING 47
SWIDTH 365 0
DWIDTH 12 0
BBX 12 26 0 -3
BITMAP
00F0
00F0
00E0
01E0
01E0
01C0
03C0
03C0
0380
0780
0780
0700
0F00
0F00
0E00
1E00
1E00
1C00
3C00
3C00
3800
7800
7800
7000
F000
F000
ENDCHAR
STARTCHAR zero
ENCODING 48
SWIDTH 695 0
DWIDTH 22 0
BBX 19 23 2 0
BITMAP
03F800
0FFE00
1FFF00
3FFF80
7F1FC0
7E0FC0
7C0FC0
FC07E0
FC07E0
FC07E0
FC07E0
FC07E0
FC07E0
FC07E0
FC07E0
FC07E0
7E0FC0
7E0FC0
7F1FC0
3FFF80
1FFF00
0FFE00
03F800
ENDCHAR
STARTCHAR one
ENCODING 49
SWIDTH 695 0
DWIDTH 22 0
BBX 16 23 4 0
BITMAP
3FE0
FFE0
FFE0
FFE0
E7E0
07E0
07E0
07E0
07E0
07E0
07E0
07E0
07E0
07E0
07E0
07E0
07E0
07E0
07E0
FFFF
FFFF
FFFF
FFFF
ENDCHAR
STARTCHAR two
ENCODING 50
SWIDTH 695 0
DWIDTH 22 0
BBX 17 23 3 0
BITMAP
1FF000
FFFC00
FFFE00
FFFF00
F07F80
803F80
001F80
001F80
001F80
003F80
003F80
007F00
01FF00
03FE00
07FC00
0FF800
1FF000
3FE000
7FC000
FFFF80
FFFF80
FFFF80
FFFF80
ENDCHAR
STARTCHAR three
ENCODING 51
SWIDTH 695 0
DWIDTH 22 0
BBX 18 23 2 0
BITMAP
1FF000
7FFE00
7FFF00
7FFF00
607F80
001F80
001F80
001F80
001F80
007F00
0FFE00
0FF800
0FFF00
0FFF80
003FC0
000FC0
000FC0
800FC0
E03FC0
FFFF80
FFFF00
FFFE00
3FF000
ENDCHAR
STARTCHAR four
ENCODING 52
SWIDTH 695 0
DWIDTH 22 0
BBX 19 23 2 0
BITMAP
007F00
00FF00
00FF00
01FF00
03FF00
07FF00
07FF00
0FBF00
1F3F00
1E3F00
3E3F00
7C3F00
F83F00
F83F00
FFFFE0
FFFFE0
FFFFE0
FFFFE0
003F00
003F00
003F00
003F00
003F00
ENDCHAR
STARTCHAR five
ENCODING 53
SWIDTH 695 0
DWIDTH 22 0
BBX 18 23 2 0
BITMAP
7FFF00
7FFF00
7FFF00
7FFF00
7C0000
7C0000
7C0000
7FF800
7FFE00
7FFF00
7FFF80
703F80
401FC0
000FC0
000FC0
000FC0
000FC0
801FC0
F03F80
FFFF80
FFFF00
FFFC00
3FF000
ENDCHAR
STARTCHAR six
ENCODING 54
SWIDTH 695 0
DWIDTH 22 0
BBX 19 23 2 0
BITMAP
01FC00
07FF00
0FFF80
1FFF80
3F8380
7E0080
7E0000
FCFC00
FFFF00
FFFF80
FFFFC0
FF0FC0
FE07E0
FE07E0
FE07E0
FE07E0
7E07E0
7E07E0
7F0FC0
3FFFC0
1FFF80
0FFE00
03F800
ENDCHAR
STARTCHAR seven
ENCODING 55
SWIDTH 695 0
DWIDTH 22 0
BBX 18 23 2 0
BITMAP
FFFFC0
FFFFC0
FFFFC0
FFFFC0
001F80
003F80
003F80
007F00
007F00
00FE00
00FE00
01FC00
01FC00
01F800
03F800
03F000
07F000
07E000
0FE000
0FC000
1FC000
1F8000
3F8000
ENDCHAR
STARTCHAR eight
ENCODING 56
SWIDTH 695 0
DWIDTH 22 0
BBX 18 23 2 0
BITMAP
07F800
1FFE00
3FFF00
7FFF80
7F3F80
7E1F80
7E1F80
7E1F80
3F3F00
3FFE00
0FFC00
1FFE00
3FFF00
7E1F80
FC0FC0
FC0FC0
FC0FC0
FC0FC0
FE1FC0
7FFF80
7FFF80
1FFE00
07F800
ENDCHAR
STARTCHAR nine
ENCODING 57
SWIDTH 695 0
DWIDTH 22 0
BBX 19 23 2 0
BITMAP
03F800
0FFE00
3FFF00
7FFF80
7E1FC0
FC0FC0
FC0FC0
FC0FE0
FC0FE0
FC0FE0
FC0FE0
7E1FE0
7FFFE0
3FFFE0
1FFFE0
07E7C0
000FC0
200FC0
383F80
3FFF00
3FFE00
1FFC00
07F000
ENDCHAR
STARTCHAR colon
ENCODING 58
SWIDTH 399 0
DWIDTH 13 0
BBX 6 18 4 0
BITMAP
FC
FC
FC
FC
FC
FC
00
00
00
00
00
00
FC
FC
FC
FC
FC
FC
ENDCHAR
STARTCHAR semicolon
ENCODING 59
SWIDTH 399 0
DWIDTH 13 0
BBX 8 23 2 -5
BITMAP
3F
3F
3F
3F
3F
3F
00
00
00
00
00
00
3F
3F
3F
3F
3F
3F
7E
7C
78
F0
E0
ENDCHAR
STARTCHAR less
ENCODING 60
SWIDTH 837 0
DWIDTH 27 0
BBX 20 18 3 1
BITMAP
000010
0000F0
0007F0
003FF0
01FFC0
07FE00
3FF000
FF8000
FC0000
FC0000
FF8000
3FF000
07FE00
01FFC0
003FF0
0007F0
0000F0
000010
ENDCHAR
STARTCHAR equal
ENCODING 61
SWIDTH 837 0
DWIDTH 27 0
BBX 20 11 3 4
BITMAP
FFFFF0
FFFFF0
FFFFF0
FFFFF0
000000
000000
000000
FFFFF0
FFFFF0
FFFFF0
FFFFF0
ENDCHAR
STARTCHAR greater
ENCODING 62
SWIDTH 837 0
DWIDTH 27 0
BBX 20 18 3 1
BITMAP
800000
F00000
FE0000
FFC000
3FF800
07FE00
00FFC0
001FF0
0003F0
0003F0
001FF0
00FFC0
07FE00
3FF800
FFC000
FE0000
F00000
800000
ENDCHAR
STARTCHAR question
ENCODING 63
SWIDTH 580 0
DWIDTH 19 0
BBX 14 23 2 0
BITMAP
3FC0
FFF0
FFF8
FFFC
E1FC
80FC
00FC
00FC
01F8
03F8
07F0
0FE0
1FC0
1F80
1F80
0000
0000
1F80
1F80
1F80
1F80
1F80
1F80
ENDCHAR
STARTCHAR at
ENCODING 64
SWIDTH 1000 0
DWIDTH 32 0
BBX 28 28 2 -5
BITMAP
001FC000
00FFF800
03FFFE00
07E03F00
0F800F80
1E0003C0
3C0001C0
381E78E0
707F78E0
70FFF870
F0F0F870
E1F0F870
E1E07870
E1E07870
E1E07870
E1E078E0
E1F0F8E0
F0F0FBC0
70FFFFC0
707F7F00
781E7C00
3C000000
1E000400
0F000C00
07E07E00
03FFFC00
00FFF000
003FC000
ENDCHAR
STARTCHAR A
ENCODING 65
SWIDTH 773 0
DWIDTH 25 0
BBX 24 23 0 0
BITMAP
00FF00
00FF00
00FF00
01FF80
01FF80
03FFC0
03FFC0
03FFC0
07FFE0
07E7E0
07E7E0
0FE7F0
0FC3F0
1FC3F0
1FFFF8
1FFFF8
3FFFFC
3FFFFC
3F00FC
7F00FE
7E007E
7E007E
FE007F
ENDCHAR
STARTCHAR B
ENCODING 66
SWIDTH 762 0
DWIDTH 24 0
BBX 19 23 3 0
BITMAP
FFFC00
FFFF00
FFFF80
FFFFC0
FC1FC0
FC0FC0
FC0FC0
FC0FC0
FC1F80
FFFF80
FFFE00
FFFF80
FFFFC0
FC0FC0
FC07E0
FC07E0
FC07E0
FC07E0
FC0FE0
FFFFC0
FFFFC0
FFFF80
FFFC00
ENDCHAR
STARTCHAR C
ENCODING 67
SWIDTH 733 0
DWIDTH 23 0
BBX 20 23 2 0
BITMAP
00FF80
03FFF0
0FFFF0
1FFFF0
3FC070
7F0010
7E0000
7E0000
FC0000
FC0000
FC0000
FC0000
FC0000
FC0000
FC0000
7E0000
7E0000
7F0010
3FC070
1FFFF0
0FFFF0
03FFF0
00FF80
ENDCHAR
STARTCHAR D
ENCODING 68
SWIDTH 830 0
DWIDTH 27 0
BBX 22 23 3 0
BITMAP
FFF800
FFFF00
FFFFC0
FFFFE0
FC0FF0
FC03F8
FC01F8
FC01F8
FC00FC
FC00FC
FC00FC
FC00FC
FC00FC
FC00FC
FC00FC
FC01F8
FC01F8
FC03F8
FC0FF0
FFFFE0
FFFFC0
FFFF00
FFF800
ENDCHAR
STARTCHAR E
ENCODING 69
SWIDTH 683 0
DWIDTH 22 0
BBX 17 23 3 0
BITMAP
FFFF80
FFFF80
FFFF80
FFFF80
FC0000
FC0000
FC0000
FC0000
FC0000
FFFF00
FFFF00
FFFF00
FFFF00
FC0000
FC0000
FC0000
FC0000
FC0000
FC0000
FFFF80
FFFF80
FFFF80
FFFF80
ENDCHAR
STARTCHAR F
ENCODING 70
SWIDTH 683 0
DWIDTH 22 0
BBX 16 23 3 0
BITMAP
FFFF
FFFF
FFFF
FFFF
FC00
FC00
FC00
FC00
FC00
FFFE
FFFE
FFFE
FFFE
FC00
FC00
FC00
FC00
FC00
FC00
FC00
FC00
FC00
FC00
ENDCHAR
STARTCHAR G
ENCODING 71
SWIDTH 820 0
DWIDTH 26 0
BBX 22 23 2 0
BITMAP
00FF80
03FFF8
0FFFF8
1FFFF8
3FC078
7F0008
7E0000
7E0000
FC0000
FC0000
FC0FFC
FC0FFC
FC0FFC
FC0FFC
FC00FC
7E00FC
7E00FC
7F00FC
3FC0FC
1FFFFC
0FFFFC
03FFF8
00FF80
ENDCHAR
STARTCHAR H
ENCODING 72
SWIDTH 836 0
DWIDTH 27 0
BBX 21 23 3 0
BITMAP
FC01F8
FC01F8
FC01F8
FC01F8
FC01F8
FC01F8
FC01F8
FC01F8
FC01F8
FFFFF8
FFFFF8
FFFFF8
FFFFF8
FC01F8
FC01F8
FC01F8
FC01F8
FC01F8
FC01F8
FC01F8
FC01F8
FC01F8
FC01F8
ENDCHAR
STARTCHAR I
ENCODING 73
SWIDTH 372 0
DWIDTH 12 0
BBX 6 23 3 0
BITMAP
FC
FC
FC
FC
FC
FC
FC
FC
FC
FC
FC
FC
FC
FC
FC
FC
FC
FC
FC
FC
FC
FC
FC
ENDCHAR
STARTCHAR J
ENCODING 74
SWIDTH 372 0
DWIDTH 12 0
BBX 11 29 -2 -6
BITMAP
07E0
07E0
07E0
07E0
07E0
07E0
07E0
07E0
07E0
07E0
07E0
07E0
07E0
07E0
07E0
07E0
07E0
07E0
07E0
07E0
07E0
07E0
07E0
0FE0
1FC0
FFC0
FF80
FF00
F800
ENDCHAR
STARTCHAR K
ENCODING 75
SWIDTH 774 0
DWIDTH 25 0
BBX 23 23 3 0
BITMAP
FC03F8
FC07F0
FC0FE0
FC1FC0
FC3F80
FC7F00
FCFE00
FDFC00
FFF800
FFF000
FFE000
FFE000
FFF000
FFF800
FDFC00
FCFE00
FC7F00
FC3F80
FC1FC0
FC0FE0
FC07F0
FC03F8
FC01FE
ENDCHAR
STARTCHAR L
ENCODING 76
SWIDTH 637 0
DWIDTH 20 0
BBX 17 23 3 0
BITMAP
FC0000
FC0000
FC0000
FC0000
FC0000
FC0000
FC0000
FC0000
FC0000
FC0000
FC0000
FC0000
FC0000
FC0000
FC0000
FC0000
FC0000
FC0000
FC0000
FFFF80
FFFF80
FFFF80
FFFF80
ENDCHAR
STARTCHAR M
ENCODING 77
SWIDTH 995 0
DWIDTH 32 0
BBX 26 23 3 0
BITMAP
FF003FC0
FF003FC0
FF807FC0
FF807FC0
FFC0FFC0
FFC0FFC0
FFC0FFC0
FFE1FFC0
FDE1EFC0
FDF3EFC0
FCF3CFC0
FCF3CFC0
FC7F8FC0
FC7F8FC0
FC7F8FC0
FC3F0FC0
FC3F0FC0
FC1E0FC0
FC1E0FC0
FC000FC0
FC000FC0
FC000FC0
FC000FC0
ENDCHAR
STARTCHAR N
ENCODING 78
SWIDTH 836 0
DWIDTH 27 0
BBX 21 23 3 0
BITMAP
FE01F8
FF01F8
FF01F8
FF81F8
FF81F8
FFC1F8
FFC1F8
FFE1F8
FDE1F8
FDF1F8
FCF1F8
FCF9F8
FC79F8
FC7DF8
FC3DF8
FC3FF8
FC1FF8
FC1FF8
FC0FF8
FC0FF8
FC07F8
FC07F8
FC03F8
ENDCHAR
STARTCHAR O
ENCODING 79
SWIDTH 850 0
DWIDTH 27 0
BBX 24 23 2 0
BITMAP
00FF00
07FFE0
0FFFF0
1FFFF8
3F81FC
7F00FE
7E007E
7E007E
FC003F
FC003F
FC003F
FC003F
FC003F
FC003F
FC003F
7E007E
7E007E
7F00FE
3F81FC
1FFFF8
0FFFF0
07FFE0
00FF00
ENDCHAR
STARTCHAR P
ENCODING 80
SWIDTH 732 0
DWIDTH 23 0
BBX 19 23 3 0
BITMAP
FFFC00
FFFF00
FFFF80
FFFFC0
FC1FC0
FC0FE0
FC07E0
FC07E0
FC07E0
FC0FE0
FC1FC0
FFFFC0
FFFF80
FFFF00
FFFC00
FC0000
FC0000
FC0000
FC0000
FC0000
FC0000
FC0000
FC0000
ENDCHAR
STARTCHAR Q
ENCODING 81
SWIDTH 850 0
DWIDTH 27 0
BBX 24 28 2 -5
BITMAP
00FF00
07FFE0
0FFFF0
1FFFF8
3F81FC
7F00FE
7E007E
7E007E
FC003F
FC003F
FC003F
FC003F
FC003F
FC003F
FC003F
7E007E
7E007E
7F00FE
3F81FC
1FFFF8
0FFFF0
07FFE0
00FFC0
0007E0
0003F0
0001F0
0001F8
0000FC
ENDCHAR
STARTCHAR R
ENCODING 82
SWIDTH 770 0
DWIDTH 25 0
BBX 21 23 3 0
BITMAP
FFF800
FFFF00
FFFF80
FFFF80
FC1FC0
FC0FC0
FC0FC0
FC0FC0
FC0FC0
FC0FC0
FC1F80
FFFF00
FFFE00
FFFE00
FFFF00
FC3F80
FC1F80
FC1FC0
FC0FE0
FC0FE0
FC07F0
FC07F0
FC03F8
ENDCHAR
STARTCHAR S
ENCODING 83
SWIDTH 720 0
DWIDTH 23 0
BBX 18 23 2 0
BITMAP
07F800
1FFF00
7FFF00
7FFF00
FE0700
FC0100
FC0000
FC0000
FE0000
FFE000
7FFC00
3FFF00
1FFF80
03FFC0
003FC0
000FC0
000FC0
800FC0
F01FC0
FFFF80
FFFF80
FFFE00
0FF800
ENDCHAR
STARTCHAR T
ENCODING 84
SWIDTH 682 0
DWIDTH 22 0
BBX 22 23 0 0
BITMAP
FFFFFC
FFFFFC
FFFFFC
FFFFFC
00FC00
00FC00
00FC00
00FC00
00FC00
00FC00
00FC00
00FC00
00FC00
00FC00
00FC00
00FC00
00FC00
00FC00
00FC00
00FC00
00FC00
00FC00
00FC00
ENDCHAR
STARTCHAR U
ENCODING 85
SWIDTH 812 0
DWIDTH 26 0
BBX 20 23 3 0
BITMAP
FC03F0
FC03F0
FC03F0
FC03F0
FC03F0
FC03F0
FC03F0
FC03F0
FC03F0
FC03F0
FC03F0
FC03F0
FC03F0
FC03F0
FC03F0
FC03F0
FC03F0
FE07E0
7F0FE0
7FFFE0
3FFFC0
0FFF00
03FC00
ENDCHAR
STARTCHAR V
ENCODING 86
SWIDTH 773 0
DWIDTH 25 0
BBX 24 23 0 0
BITMAP
FE007F
7E007E
7E007E
7F00FE
3F00FC
3F00FC
3F81FC
1F81F8
1FC3F8
0FC3F8
0FC3F0
0FE7F0
07E7E0
07E7E0
07FFE0
03FFC0
03FFC0
03FFC0
01FF80
01FF80
00FF00
00FF00
00FF00
ENDCHAR
STARTCHAR W
ENCODING 87
SWIDTH 1103 0
DWIDTH 35 0
BBX 33 23 1 0
BITMAP
FC03F01F80
FE07F03F80
7E07F03F00
7E07F03F00
7E07F03F00
7E0F783F00
3F0F787E00
3F0F787E00
3F0F787E00
3F1F3C7E00
3F9E3CFE00
1F9E3CFC00
1F9E3CFC00
1FBE3EFC00
1FFC1FFC00
0FFC1FF800
0FFC1FF800
0FFC1FF800
0FF80FF800
07F80FF000
07F80FF000
07F80FF000
07F007F000
ENDCHAR
STARTCHAR X
ENCODING 88
SWIDTH 770 0
DWIDTH 25 0
BBX 23 23 1 0
BITMAP
FF01FE
7F01FC
3F83F8
3FC7F8
1FC7F0
0FEFE0
07FFC0
07FFC0
03FF80
01FF00
01FF00
00FE00
01FF00
03FF80
03FF80
07FFC0
0FFFE0
0FEFE0
1FC7F0
3FC7F8
3F83F8
7F01FC
FF01FE
ENDCHAR
STARTCHAR Y
ENCODING 89
SWIDTH 724 0
DWIDTH 23 0
BBX 24 23 0 0
BITMAP
FF00FF
7F00FE
3F81FC
3FC3FC
1FC3F8
0FE7F0
0FFFF0
07FFE0
03FFC0
03FFC0
01FF80
00FF00
00FF00
007E00
007E00
007E00
007E00
007E00
007E00
007E00
007E00
007E00
007E00
ENDCHAR
STARTCHAR Z
ENCODING 90
SWIDTH 725 0
DWIDTH 23 0
BBX 20 23 1 0
BITMAP
FFFFF0
FFFFF0
FFFFF0
FFFFF0
000FE0
001FE0
003FC0
007F80
00FF00
00FE00
01FE00
03FC00
07F800
07F000
0FE000
1FE000
3FC000
7F8000
7F0000
FFFFF0
FFFFF0
FFFFF0
FFFFF0
ENDCHAR
STARTCHAR bracketleft
ENCODING 91
SWIDTH 457 0
DWIDTH 15 0
BBX 9 29 3 -5
BITMAP
FF80
FF80
FF80
FF80
F800
F800
F800
F800
F800
F800
F800
F800
F800
F800
F800
F800
F800
F800
F800
F800
F800
F800
F800
F800
F800
FF80
FF80
FF80
FF80
ENDCHAR
STARTCHAR backslash
ENCODING 92
SWIDTH 365 0
DWIDTH 12 0
BBX 12 26 0 -3
BITMAP
F000
F000
7000
7800
7800
3800
3C00
3C00
1C00
1E00
1E00
0E00
0F00
0F00
0700
0780
0780
0380
03C0
03C0
01C0
01E0
01E0
00E0
00F0
00F0
ENDCHAR
STARTCHAR bracketright
ENCODING 93
SWIDTH 457 0
DWIDTH 15 0
BBX 9 29 3 -5
BITMAP
FF80
FF80
FF80
FF80
0F80
0F80
0F80
0F80
0F80
0F80
0F80
0F80
0F80
0F80
0F80
0F80
0F80
0F80
0F80
0F80
0F80
0F80
0F80
0F80
0F80
FF80
FF80
FF80
FF80
ENDCHAR
STARTCHAR asciicircum
ENCODING 94
SWIDTH 837 0
DWIDTH 27 0
BBX 20 9 3 14
BITMAP
00F000
01F800
03FC00
07FE00
0FFF00
1F0F80
3E07C0
7C03E0
F000F0
ENDCHAR
STARTCHAR underscore
ENCODING 95
SWIDTH 500 0
DWIDTH 16 0
BBX 16 3 0 -8
BITMAP
FFFF
FFFF
FFFF
ENDCHAR
STARTCHAR grave
ENCODING 96
SWIDTH 500 0
DWIDTH 16 0
BBX 9 6 1 20
BITMAP
F800
7C00
3C00
1E00
0F00
0780
ENDCHAR
STARTCHAR a
ENCODING 97
SWIDTH 674 0
DWIDTH 22 0
BBX 18 18 1 0
BITMAP
0FF800
3FFE00
3FFF00
3FFF80
301F80
000FC0
000FC0
0FFFC0
3FFFC0
7FFFC0
FE0FC0
FC0FC0
FC1FC0
FE3FC0
FFFFC0
7FFFC0
3FEFC0
1F8FC0
ENDCHAR
STARTCHAR b
ENCODING 98
SWIDTH 715 0
DWIDTH 23 0
BBX 19 24 3 0
BITMAP
FC0000
FC0000
FC0000
FC0000
FC0000
FC0000
FC7C00
FDFF00
FFFF80
FFFFC0
FF1FC0
FE0FE0
FC07E0
FC07E0
FC07E0
FC07E0
FC07E0
FC07E0
FE0FE0
FF1FC0
FFFFC0
FFFF80
FDFF00
FC7C00
ENDCHAR
STARTCHAR c
ENCODING 99
SWIDTH 592 0
DWIDTH 19 0
BBX 15 18 1 0
BITMAP
03F8
0FFE
3FFE
3FFE
7F06
7E02
FC00
FC00
FC00
FC00
FC00
FC00
7E02
7F06
3FFE
3FFE
0FFE
03F8
ENDCHAR
STARTCHAR d
ENCODING 100
SWIDTH 715 0
DWIDTH 23 0
BBX 19 24 1 0
BITMAP
0007E0
0007E0
0007E0
0007E0
0007E0
0007E0
07C7E0
1FF7E0
3FFFE0
7FFFE0
7F1FE0
FE0FE0
FC07E0
FC07E0
FC07E0
FC07E0
FC07E0
FC07E0
FE0FE0
7F1FE0
7FFFE0
3FFFE0
1FF7E0
07C7E0
ENDCHAR
STARTCHAR e
ENCODING 101
SWIDTH 678 0
DWIDTH 22 0
BBX 19 18 1 0
BITMAP
03F800
0FFE00
1FFF00
3FFF80
7F1FC0
7E0FC0
FC07E0
FC07E0
FFFFE0
FFFFE0
FFFFE0
FC0000
7E0040
7F03C0
3FFFC0
3FFFC0
0FFF80
03FC00
ENDCHAR
STARTCHAR f
ENCODING 102
SWIDTH 435 0
DWIDTH 14 0
BBX 14 24 0 0
BITMAP
03FC
0FFC
0FFC
1FFC
1F80
1F80
FFFC
FFFC
FFFC
FFFC
1F80
1F80
1F80
1F80
1F80
1F80
1F80
1F80
1F80
1F80
1F80
1F80
1F80
1F80
ENDCHAR
STARTCHAR g
ENCODING 103
SWIDTH 715 0
DWIDTH 23 0
BBX 19 25 1 -7
BITMAP
07C7E0
1FF7E0
3FFFE0
7FFFE0
7F1FE0
FE0FE0
FC07E0
FC07E0
FC07E0
FC07E0
FC07E0
FC07E0
FE0FE0
7F1FE0
7FFFE0
3FFFE0
1FF7E0
07C7E0
0007E0
200FC0
381FC0
3FFF80
3FFF80
1FFE00
07F800
ENDCHAR
STARTCHAR h
ENCODING 104
SWIDTH 711 0
DWIDTH 23 0
BBX 18 24 3 0
BITMAP
FC0000
FC0000
FC0000
FC0000
FC0000
FC0000
FC7E00
FDFF00
FFFF80
FFFF80
FF1FC0
FE0FC0
FC0FC0
FC0FC0
FC0FC0
FC0FC0
FC0FC0
FC0FC0
FC0FC0
FC0FC0
FC0FC0
FC0FC0
FC0FC0
FC0FC0
ENDCHAR
STARTCHAR i
ENCODING 105
SWIDTH 342 0
DWIDTH 11 0
BBX 6 24 3 0
BITMAP
FC
FC
FC
FC
00
00
FC
FC
FC
FC
FC
FC
FC
FC
FC
FC
FC
FC
FC
FC
FC
FC
FC
FC
ENDCHAR
STARTCHAR j
ENCODING 106
SWIDTH 342 0
DWIDTH 11 0
BBX 10 31 -1 -7
BITMAP
0FC0
0FC0
0FC0
0FC0
0000
0000
0FC0
0FC0
0FC0
0FC0
0FC0
0FC0
0FC0
0FC0
0FC0
0FC0
0FC0
0FC0
0FC0
0FC0
0FC0
0FC0
0FC0
0FC0
0FC0
0FC0
1FC0
FF80
FF80
FF00
FC00
ENDCHAR
STARTCHAR k
ENCODING 107
SWIDTH 665 0
DWIDTH 21 0
BBX 19 24 3 0
BITMAP
FC0000
FC0000
FC0000
FC0000
FC0000
FC0000
FC1FC0
FC1F80
FC3F00
FC7E00
FCFC00
FDF800
FFF000
FFE000
FFC000
FFE000
FFF000
FDF800
FCFC00
FC7E00
FC7F00
FC3F80
FC1FC0
FC0FE0
ENDCHAR
STARTCHAR l
ENCODING 108
SWIDTH 342 0
DWIDTH 11 0
BBX 6 24 3 0
BITMAP
FC
FC
FC
FC
FC
FC
FC
FC
FC
FC
FC
FC
FC
FC
FC
FC
FC
FC
FC
FC
FC
FC
FC
FC
ENDCHAR
STARTCHAR m
ENCODING 109
SWIDTH 1041 0
DWIDTH 33 0
BBX 28 18 3 0
BITMAP
FC7C1F80
FDFE3FC0
FFFF7FE0
FFFFFFE0
FF3FE7F0
FE1FC3F0
FC1F83F0
FC1F83F0
FC1F83F0
FC1F83F0
FC1F83F0
FC1F83F0
FC1F83F0
FC1F83F0
FC1F83F0
FC1F83F0
FC1F83F0
FC1F83F0
ENDCHAR
STARTCHAR n
ENCODING 110
SWIDTH 711 0
DWIDTH 23 0
BBX 18 18 3 0
BITMAP
FC7E00
FDFF00
FFFF80
FFFF80
FF1FC0
FE0FC0
FC0FC0
FC0FC0
FC0FC0
FC0FC0
FC0FC0
FC0FC0
FC0FC0
FC0FC0
FC0FC0
FC0FC0
FC0FC0
FC0FC0
ENDCHAR
STARTCHAR o
ENCODING 111
SWIDTH 687 0
DWIDTH 22 0
BBX 19 18 1 0
BITMAP
03F800
0FFE00
3FFF80
3FFF80
7F1FC0
7E0FC0
FC07E0
FC07E0
FC07E0
FC07E0
FC07E0
FC07E0
7E0FC0
7F1FC0
3FFF80
3FFF80
0FFE00
03F800
ENDCHAR
STARTCHAR p
ENCODING 112
SWIDTH 715 0
DWIDTH 23 0
BBX 19 25 3 -7
BITMAP
FC7C00
FDFF00
FFFF80
FFFFC0
FF1FC0
FE0FE0
FC07E0
FC07E0
FC07E0
FC07E0
FC07E0
FC07E0
FE0FE0
FF1FC0
FFFFC0
FFFF80
FDFF00
FC7C00
FC0000
FC0000
FC0000
FC0000
FC0000
FC0000
FC0000
ENDCHAR
STARTCHAR q
ENCODING 113
SWIDTH 715 0
DWIDTH 23 0
BBX 19 25 1 -7
BITMAP
07C7E0
1FF7E0
3FFFE0
7FFFE0
7F1FE0
FE0FE0
FC07E0
FC07E0
FC07E0
FC07E0
FC07E0
FC07E0
FE0FE0
7F1FE0
7FFFE0
3FFFE0
1FF7E0
07C7E0
0007E0
0007E0
0007E0
0007E0
0007E0
0007E0
0007E0
ENDCHAR
STARTCHAR r
ENCODING 114
SWIDTH 493 0
DWIDTH 16 0
BBX 13 18 3 0
BITMAP
FC78
FDF8
FFF8
FFF8
FF08
FE00
FE00
FC00
FC00
FC00
FC00
FC00
FC00
FC00
FC00
FC00
FC00
FC00
ENDCHAR
STARTCHAR s
ENCODING 115
SWIDTH 595 0
DWIDTH 19 0
BBX 16 18 2 0
BITMAP
0FE0
3FFC
7FFE
FFFE
F81E
F802
FF00
FFF8
7FFE
1FFE
01FF
001F
801F
F03F
FFFF
FFFE
7FFC
0FF0
ENDCHAR
STARTCHAR t
ENCODING 116
SWIDTH 478 0
DWIDTH 15 0
BBX 15 22 0 0
BITMAP
1F80
1F80
1F80
1F80
FFFE
FFFE
FFFE
FFFE
1F80
1F80
1F80
1F80
1F80
1F80
1F80
1F80
1F80
1F80
1FFC
0FFC
0FFC
03FC
ENDCHAR
STARTCHAR u
ENCODING 117
SWIDTH 711 0
DWIDTH 23 0
BBX 18 18 3 0
BITMAP
FC0FC0
FC0FC0
FC0FC0
FC0FC0
FC0FC0
FC0FC0
FC0FC0
FC0FC0
FC0FC0
FC0FC0
FC0FC0
FC0FC0
FC1FC0
FE3FC0
7FFFC0
7FFFC0
3FEFC0
1F8FC0
ENDCHAR
STARTCHAR v
ENCODING 118
SWIDTH 651 0
DWIDTH 21 0
BBX 20 18 0 0
BITMAP
FE07F0
7E07E0
7E07E0
7F0FE0
3F0FC0
3F9FC0
3F9FC0
1F9F80
1FFF80
0FFF00
0FFF00
0FFF00
07FE00
07FE00
03FC00
03FC00
03FC00
01F800
ENDCHAR
STARTCHAR w
ENCODING 119
SWIDTH 923 0
DWIDTH 30 0
BBX 27 18 1 0
BITMAP
FC1F07E0
FE1F0FE0
7E1F0FC0
7E3F8FC0
7E3F8FC0
7F3F9FC0
3F3F9F80
3F7FDF80
3F7BDF80
3FFBFF80
1FFBFF00
1FFBFF00
1FF1FF00
1FF1FF00
0FF1FE00
0FF1FE00
0FE0FE00
0FE0FE00
ENDCHAR
STARTCHAR x
ENCODING 120
SWIDTH 645 0
DWIDTH 21 0
BBX 20 18 0 0
BITMAP
FF0FF0
7F9FE0
3F9FC0
1FFF80
1FFF80
0FFF00
07FE00
03FC00
03FC00
03FC00
07FE00
07FE00
0FFF00
1FFF80
1FFF80
3F9FC0
7F0FE0
FF0FF0
ENDCHAR
STARTCHAR y
ENCODING 121
SWIDTH 651 0
DWIDTH 21 0
BBX 20 25 0 -7
BITMAP
FE07F0
7E07E0
7F07E0
7F0FE0
3F0FC0
3F9FC0
1F9FC0
1FDF80
0FFF80
0FFF00
0FFF00
07FF00
07FE00
03FE00
03FC00
01FC00
01FC00
01F800
01F800
03F800
07F000
1FF000
1FE000
1FC000
1F8000
ENDCHAR
STARTCHAR z
ENCODING 122
SWIDTH 582 0
DWIDTH 19 0
BBX 16 18 1 0
BITMAP
FFFF
FFFF
FFFF
FFFF
00FF
01FE
03FC
07F8
07F8
0FF0
1FE0
3FC0
7F80
FF80
FFFF
FFFF
FFFF
FFFF
ENDCHAR
STARTCHAR braceleft
ENCODING 123
SWIDTH 711 0
DWIDTH 23 0
BBX 15 30 4 -6
BITMAP
00FE
01FE
03FE
07FE
07E0
07C0
07C0
07C0
07C0
07C0
07C0
07C0
0FC0
0FC0
FF80
FF00
FF00
FF80
0FC0
07C0
07C0
07C0
07C0
07C0
07C0
07E0
07FE
03FE
03FE
00FE
ENDCHAR
STARTCHAR bar
ENCODING 124
SWIDTH 365 0
DWIDTH 12 0
BBX 4 32 4 -8
BITMAP
F0
F0
F0
F0
F0
F0
F0
F0
F0
F0
F0
F0
F0
F0
F0
F0
F0
F0
F0
F0
F0
F0
F0
F0
F0
F0
F0
F0
F0
F0
F0
F0
ENDCHAR
STARTCHAR braceright
ENCODING 125
SWIDTH 711 0
DWIDTH 23 0
BBX 15 30 4 -6
BITMAP
FE00
FF00
FF80
FFC0
0FC0
07C0
07C0
07C0
07C0
07C0
07C0
07C0
07C0
07E0
03FE
01FE
01FE
03FE
07E0
07C0
07C0
07C0
07C0
07C0
07C0
0FC0
FFC0
FF80
FF80
FE00
ENDCHAR
STARTCHAR asciitilde
ENCODING 126
SWIDTH 837 0
DWIDTH 27 0
BBX 20 6 3 7
BITMAP
1F8010
7FF070
FFFFF0
FFFFF0
E0FFE0
801F80
ENDCHAR
STARTCHAR nonbreakingspace
ENCODING 160
SWIDTH 695 0
DWIDTH 22 0
BBX 1 1 0 0
BITMAP
00
ENDCHAR
STARTCHAR degree
ENCODING 176
SWIDTH 500 0
DWIDTH 16 0
BBX 10 10 3 14
BITMAP
1E00
7F80
6180
C0C0
C0C0
C0C0
C0C0
6180
7F80
1E00
ENDCHAR
STARTCHAR bullet
ENCODING 8226
SWIDTH 639 0
DWIDTH 20 0
BBX 11 11 5 7
BITMAP
1F00
3F80
7FC0
FFE0
FFE0
FFE0
FFE0
FFE0
7FC0
3F80
1F00
ENDCHAR

